<!-- icon666.com - MILLIONS OF FREE VECTOR ICONS --><svg id="Icons" viewBox="0 0 60 60" xmlns="http://www.w3.org/2000/svg"><path d="m9.156 59.471a.5.5 0 0 1 -.272-.919l8.809-5.735-10.319 5.957a.5.5 0 0 1 -.531-.845l11.265-7.659-10.828 6.251a.5.5 0 0 1 -.525-.849l6-3.97-5.414 3.127a.5.5 0 0 1 -.526-.85l3.341-2.207-2.663 1.538a.5.5 0 0 1 -.528-.849l2.065-1.38-1.1.637a.5.5 0 0 1 -.531-.847l1.041-.706a.5.5 0 0 1 -.44-.865l3.168-2.766a.509.509 0 0 1 -.461-.249.5.5 0 0 1 .183-.682l4.016-2.319a.5.5 0 0 1 .579.81l-2.958 2.582 7.065-4.076a.5.5 0 0 1 .53.846l-.776.528 2.38-1.374a.5.5 0 0 1 .528.848l-2.064 1.377 3.859-2.225a.5.5 0 0 1 .525.849l-3.34 2.206 5.294-3.055a.5.5 0 0 1 .526.849l-6 3.968 8.346-4.817a.5.5 0 0 1 .532.845l-11.271 7.655 14.739-8.5a.5.5 0 0 1 .522.851l-8.812 5.732 11.407-6.583a.5.5 0 0 1 .517.855l-4.534 2.869 6.455-3.724a.5.5 0 0 1 .522.852l-8.163 5.284 10.454-6.036a.5.5 0 0 1 .522.852l-8.72 5.679 10.554-6.092a.5.5 0 0 1 .531.846l-11.343 7.7 13.139-7.585a.5.5 0 0 1 .528.848l-8.963 5.993 10.042-5.8a.5.5 0 0 1 .524.851l-6.014 3.956 6.655-3.842a.5.5 0 0 1 .519.854l-1.136.727 1.3-.751a.5.5 0 0 1 .542.838l-8.044 5.8 8.654-5a.5.5 0 0 1 .532.846l-3.677 2.512 3.787-2.178a.5.5 0 0 1 .554.83l-5.315 4.055 5.353-3.091a.5.5 0 0 1 .545.836l-2.076 1.516 1.788-1.032a.5.5 0 0 1 .557.827l-1.588 1.239 1.17-.676a.5.5 0 0 1 .639.747l-1.767 2.184 1.161-.669a.5.5 0 0 1 .678.689l-.378.631a.5.5 0 0 1 .114.914l-1.124.648a.5.5 0 0 1 -.679-.689l.218-.363-1.824 1.05a.5.5 0 0 1 -.639-.747l1.767-2.184-5.078 2.931a.5.5 0 0 1 -.557-.827l1.586-1.236-3.576 2.063a.5.5 0 0 1 -.544-.836l2.077-1.519-4.08 2.355a.5.5 0 0 1 -.554-.83l5.315-4.054-8.461 4.884a.5.5 0 0 1 -.532-.845l3.674-2.51-5.812 3.355a.5.5 0 0 1 -.541-.838l8.044-5.795-11.491 6.633a.5.5 0 0 1 -.519-.853l1.133-.727-2.738 1.58a.5.5 0 0 1 -.524-.85l6.024-3.958-8.337 4.808a.5.5 0 0 1 -.528-.848l8.965-5.989-11.853 6.837a.5.5 0 0 1 -.531-.846l11.343-7.7-14.808 8.546a.5.5 0 0 1 -.522-.851l8.725-5.684-11.32 6.535a.5.5 0 0 1 -.522-.852l8.159-5.282-10.626 6.134a.5.5 0 0 1 -.518-.855l4.534-2.871-6.455 3.726a.5.5 0 0 1 -.25.071z" fill="#516670"></path><path d="m28.144 59.473a.5.5 0 0 1 -.306-.9l5.005-3.864-7.386 4.264a.5.5 0 0 1 -.546-.836l6.9-5.051-7.93 4.578a.5.5 0 0 1 -.533-.845l5.729-3.941-6.068 3.5a.5.5 0 0 1 -.539-.841l8.457-6-8.77 5.062a.5.5 0 0 1 -.544-.837l7.686-5.59-7.788 4.5a.5.5 0 0 1 -.541-.84l4.53-3.232-4.366 2.52a.5.5 0 0 1 -.553-.83l3.825-2.912-3.588 2.071a.5.5 0 0 1 -.587-.8l3.168-2.89-2.863 1.652a.5.5 0 0 1 -.606-.783l1.3-1.326-.848.49a.5.5 0 0 1 -.743-.517l.251-1.477a.49.49 0 0 1 -.291-.23.5.5 0 0 1 .182-.682l.5-.287a.5.5 0 0 1 .743.516l-.217 1.28 3.121-1.8a.5.5 0 0 1 .606.783l-1.306 1.322 3.664-2.114a.5.5 0 0 1 .587.8l-3.167 2.889 6.4-3.7a.5.5 0 0 1 .553.83l-3.825 2.911 6.49-3.746a.5.5 0 0 1 .541.84l-4.527 3.233 7.065-4.078a.5.5 0 0 1 .544.837l-7.679 5.598 9.826-5.674a.5.5 0 0 1 .539.841l-8.46 6 7.754-4.477a.5.5 0 0 1 .533.845l-5.726 3.939 4.946-2.856a.5.5 0 0 1 .545.836l-6.9 5.051 5.869-3.387a.5.5 0 0 1 .555.828l-5.005 3.866 3.7-2.139a.5.5 0 0 1 .557.826l-1.888 1.478.456-.263a.5.5 0 0 1 .569.817l-1.239 1.027a.506.506 0 0 1 .175.178.5.5 0 0 1 -.183.683l-3.431 1.981a.5.5 0 0 1 -.569-.817l.054-.045-1.5.863a.5.5 0 0 1 -.558-.826l1.894-1.475-3.993 2.3a.5.5 0 0 1 -.25.073z" fill="#f0f2f5"></path><path d="m30.559 50.474a.5.5 0 0 1 -.363-.845l1.777-1.87-4.029 2.326a.5.5 0 0 1 -.564-.821l2.054-1.664-2.523 1.456a.5.5 0 0 1 -.6-.792l1.848-1.784-2.339 1.35a.5.5 0 0 1 -.664-.713l1.068-1.579-.706.406a.5.5 0 0 1 -.742-.521l.119-.662a.5.5 0 0 1 -.071-.9l.461-.265a.5.5 0 0 1 .742.522l-.076.423 1.651-.952a.5.5 0 0 1 .617.092.5.5 0 0 1 .048.621l-1.067 1.578 3.993-2.3a.5.5 0 0 1 .6.792l-1.848 1.778 4.481-2.587a.5.5 0 0 1 .564.822l-2.052 1.662 1.529-.882a.5.5 0 0 1 .612.777l-1.779 1.87.384-.222a.5.5 0 1 1 .5.865l-3.378 1.951a.493.493 0 0 1 -.247.068z" fill="#d92936"></path><path d="m28.773 59.494a.5.5 0 0 1 -.345-.861l1.291-1.233-3.426 1.978a.5.5 0 0 1 -.579-.809l2.8-2.452-1.717.99a.5.5 0 0 1 -.6-.791l2.803-2.716-1.628.939a.5.5 0 0 1 -.569-.817l.623-.516a.5.5 0 0 1 -.455-.689l.712-1.735a.49.49 0 0 1 -.162-.17.5.5 0 0 1 .183-.683l.579-.334a.5.5 0 0 1 .713.623l-.543 1.322 3.287-1.9a.5.5 0 0 1 .57.817l-.3.249a.5.5 0 0 1 .574.8l-2.8 2.716 2.645-1.522a.5.5 0 0 1 .579.809l-2.8 2.452 2.618-1.511a.5.5 0 0 1 .6.794l-1.296 1.235 1.02-.589a.5.5 0 0 1 .708.633l-.553 1.257.242-.139a.5.5 0 0 1 .5.865l-1.567.905a.5.5 0 0 1 -.708-.634l.554-1.257-3.3 1.907a.489.489 0 0 1 -.253.067z" fill="#ec3a48"></path><path d="m17.234 22.478a.5.5 0 0 1 -.276-.916l9.942-6.6-12.1 6.987a.5.5 0 0 1 -.53-.848l11.782-7.941-11.772 6.8a.5.5 0 0 1 -.521-.853l9.223-5.969-8.7 5.025a.5.5 0 0 1 -.52-.854l7.638-4.909-7.12 4.109a.5.5 0 0 1 -.521-.853l6.662-4.31-6.083 3.512a.5.5 0 0 1 -.523-.852l4.826-3.139-4.141 2.391a.5.5 0 0 1 -.526-.849l4.4-2.921-3.458 2a.5.5 0 0 1 -.543-.838l5.936-4.288-4.309 2.481a.5.5 0 0 1 -.576-.812l3.676-3.158a.506.506 0 0 1 -.508-.245.5.5 0 0 1 .182-.683l4.314-2.491a.5.5 0 0 1 .576.812l-3.534 3.04 8.157-4.706a.5.5 0 0 1 .543.838l-5.936 4.286 8.88-5.124a.5.5 0 0 1 .527.849l-4.4 2.917 6.529-3.766a.5.5 0 0 1 .522.852l-4.831 3.14 6.92-4a.5.5 0 0 1 .521.853l-6.656 4.309 8.304-4.794a.5.5 0 0 1 .52.854l-7.639 4.907 7.457-4.306a.5.5 0 0 1 .521.853l-9.226 5.971 7.143-4.125a.5.5 0 0 1 .53.848l-11.779 7.938 13.572-7.832a.5.5 0 0 1 .526.849l-9.944 6.6 11.289-6.517a.5.5 0 0 1 .515.856l-.487.307.849-.491a.5.5 0 0 1 .532.846l-9.575 6.565 10.3-5.949a.5.5 0 0 1 .53.847l-6.585 4.447 6.779-3.915a.5.5 0 0 1 .544.838l-7.476 5.434 7.464-4.309a.5.5 0 0 1 .542.839l-4.439 3.185 4.048-2.337a.5.5 0 0 1 .544.837l-2.4 1.739 1.852-1.07a.5.5 0 0 1 .576.812l-2.768 2.389 2.2-1.268a.5.5 0 0 1 .59.8l-.994.923.405-.234a.5.5 0 0 1 .678.691l-.858 1.426a.475.475 0 0 1 .087.11.5.5 0 0 1 -.183.683l-.7.4a.5.5 0 0 1 -.679-.691l.475-.788-2.563 1.478a.5.5 0 0 1 -.589-.8l.992-.921-2.986 1.726a.5.5 0 0 1 -.576-.812l2.776-2.385-5.539 3.2a.5.5 0 0 1 -.544-.838l2.395-1.738-4.463 2.577a.5.5 0 0 1 -.542-.84l4.445-3.191-6.983 4.031a.5.5 0 0 1 -.544-.837l7.475-5.436-10.864 6.273a.5.5 0 0 1 -.53-.848l6.585-4.446-9.17 5.3a.5.5 0 0 1 -.533-.846l9.58-6.569-12.841 7.411a.5.5 0 0 1 -.515-.857l.485-.3-2.013 1.162a.494.494 0 0 1 -.25.062z" fill="#3d535e"></path><path d="m25.178 45.5a.5.5 0 0 1 -.3-.9l1.973-1.483-2.571 1.483a.5.5 0 0 1 -.568-.819l2.188-1.807-1.616.932a.5.5 0 0 1 -.63-.758l1.453-1.7-.823.475a.5.5 0 0 1 -.734-.558l.275-1.066a.487.487 0 0 1 -.223-.2.5.5 0 0 1 .182-.683l.5-.289a.5.5 0 0 1 .735.558l-.2.78 2.32-1.339a.5.5 0 0 1 .63.758l-1.452 1.7 4.252-2.455a.5.5 0 0 1 .568.818l-2.186 1.808 4.55-2.627a.5.5 0 0 1 .551.832l-1.973 1.482 3.649-2.105a.5.5 0 0 1 .577.811l-3.221 2.789 2.646-1.537a.5.5 0 0 1 .645.74l-1.652 2.125 1.018-.588a.5.5 0 0 1 .554.035.5.5 0 0 1 .18.525l-.263.991a.5.5 0 0 1 .038.885l-.5.29a.5.5 0 0 1 -.734-.56l.185-.7-2.193 1.266a.5.5 0 0 1 -.645-.739l1.654-2.126-4.981 2.875a.5.5 0 0 1 -.577-.811l3.221-2.789-6.252 3.611a.491.491 0 0 1 -.25.07z" fill="#ad763a"></path><path d="m42.045 21.284a.5.5 0 0 1 -.39-.813l.75-.935a.5.5 0 0 1 -.069-.9l1.553-.9a.5.5 0 0 1 .639.746l-.427.534 1.144-.661a.5.5 0 0 1 .5.866l-3.445 1.996a.5.5 0 0 1 -.255.067z" fill="#bf8540"></path><path d="m18.029 20.386a.5.5 0 0 1 -.419-.774l.835-1.278a.5.5 0 0 1 -.363-.92l1.651-.954a.5.5 0 0 1 .669.707l-.809 1.239 9.962-5.752a.5.5 0 0 1 .5.867l-11.776 6.8a.5.5 0 0 1 -.25.065z" fill="#bf8540"></path><path d="m30.924 40.367a.5.5 0 0 1 -.293-.9l2.256-1.628-4.178 2.411a.5.5 0 0 1 -.547-.835l6.309-4.656-8.409 4.854a.5.5 0 0 1 -.532-.845l7.4-5.027-8.678 5.01a.5.5 0 0 1 -.531-.846l10.5-7.138-11.721 6.758a.5.5 0 0 1 -.519-.854l4.019-2.557-4.461 2.575a.5.5 0 0 1 -.519-.854l5.425-3.457-5.7 3.291a.5.5 0 0 1 -.516-.856l2.744-1.724-2.924 1.687a.5.5 0 0 1 -.522-.852l5.7-3.688-5.8 3.35a.5.5 0 0 1 -.524-.852l7.409-4.834-7.506 4.333a.5.5 0 0 1 -.526-.85l8.337-5.509-8.217 4.74a.5.5 0 0 1 -.517-.855l.764-.485-.447.258a.5.5 0 0 1 -.521-.853l2.91-1.879-2.7 1.56a.5.5 0 0 1 -.532-.846l6.556-4.464-7.576 4.374a.5.5 0 0 1 -.522-.853l2-1.3-2.286 1.319a.5.5 0 0 1 -.522-.852l1.456-.944-1.441.832a.5.5 0 0 1 -.533-.846l6.142-4.211-6.109 3.527a.5.5 0 0 1 -.613-.778l1.14-1.2-.734.423a.5.5 0 0 1 -.6-.79l.481-.474a.5.5 0 0 1 -.518-.133.5.5 0 0 1 -.051-.62l.659-.988a.5.5 0 0 1 -.238-.933l1.5-.867a.5.5 0 0 1 .666.71l-.568.853 1.416-.818a.5.5 0 0 1 .6.79l-.449.441.337-.194a.5.5 0 0 1 .612.777l-1.14 1.2 14.278-8.247a.5.5 0 0 1 .533.846l-6.14 4.206 7.01-4.047a.5.5 0 0 1 .523.852l-1.459.946 2.033-1.17a.5.5 0 0 1 .522.853l-2 1.3 2.745-1.585a.5.5 0 0 1 .532.846l-6.562 4.469 8.108-4.68a.5.5 0 0 1 .521.853l-2.9 1.878 4.206-2.428a.5.5 0 0 1 .517.855l-.771.489 1.761-1.016a.5.5 0 0 1 .525.85l-8.336 5.508 8.917-5.148a.5.5 0 0 1 .523.851l-7.408 4.836 7.021-4.054a.5.5 0 0 1 .521.853l-5.702 3.689 9.022-5.208a.5.5 0 0 1 .515.856l-2.743 1.724 2.381-1.372a.5.5 0 0 1 .518.855l-5.42 3.454 4.865-2.809a.5.5 0 0 1 .518.855l-4.014 2.554 3.318-1.919a.5.5 0 0 1 .531.847l-10.5 7.138 8.7-5.022a.5.5 0 0 1 .532.846l-7.4 5.028 4.313-2.489a.5.5 0 0 1 .547.835l-6.311 4.658 4.988-2.876a.5.5 0 0 1 .543.838l-2.248 1.623.511-.3a.5.5 0 1 1 .5.865l-9.032 5.219a.491.491 0 0 1 -.25.067z" fill="#bf8540"></path><g fill="#d6dbe3"><path d="m28.868 45.646a.5.5 0 0 1 -.25-.932l.505-.292a.5.5 0 1 1 .5.865l-.505.292a.491.491 0 0 1 -.25.067z"></path><path d="m23.85 48.874a.5.5 0 0 1 -.371-.836l1.584-1.738-2.488 1.436a.5.5 0 0 1 -.64-.744l1.68-2.108-2.39 1.38a.5.5 0 0 1 -.608-.782l1.1-1.123-1.139.658a.5.5 0 0 1 -.658-.721l1.066-1.511-.357.206a.5.5 0 1 1 -.5-.865l2.329-1.345a.5.5 0 0 1 .658.721l-1.065 1.51 2.329-1.345a.5.5 0 0 1 .607.782l-1.1 1.123 1.517-.876a.5.5 0 0 1 .641.745l-1.681 2.108 2.976-1.718a.5.5 0 0 1 .62.769l-2.023 2.226a.5.5 0 0 1 .055.894l-1.892 1.087a.491.491 0 0 1 -.25.067z"></path><path d="m34.785 48.884a.5.5 0 0 1 -.316-.884l.158-.128a.5.5 0 0 1 -.6-.8l2.194-2.106-2.784 1.605a.5.5 0 0 1 -.563-.822l.426-.343-.914.528a.5.5 0 0 1 -.58-.057l-.671-.589-.3.175a.5.5 0 1 1 -.5-.865l.614-.355a.5.5 0 0 1 .58.057l.671.589 6.2-3.578a.5.5 0 0 1 .564.822l-.428.345.753-.435a.5.5 0 0 1 .6.793l-2.192 2.1 1.826-1.053a.5.5 0 0 1 .566.82l-1.041.848a.5.5 0 0 1 .076.9l-4.085 2.358a.493.493 0 0 1 -.254.075z"></path><path d="m35.812 41.939a.5.5 0 0 1 -.25-.932l.647-.374a.5.5 0 1 1 .5.865l-.647.374a.5.5 0 0 1 -.25.067z"></path></g><path d="m6.327 58.509c.441 1.354 2.681.966 3.759.966h29.114c4.153 0 8.368.212 12.517 0 2.09-.107 2.011-1.672 2.011-3.3a14.688 14.688 0 0 0 -1.184-6.569c-2.271-4.746-6.886-6.976-11.944-7.072a3.189 3.189 0 0 0 -.449-.564 4.4 4.4 0 0 0 -1.478-.984 6.613 6.613 0 0 0 -1.953-.482v-2.158c0-.007-.006-.011-.008-.017a12.986 12.986 0 0 0 1.089-.714 12.493 12.493 0 0 0 5.014-8.305c.1-.7 0-1.35.629-1.715a4.956 4.956 0 0 0 2.33-1.995 10.186 10.186 0 0 0 .946-4.729c0-.279 0-.557-.024-.829a.346.346 0 0 0 .034-.112 66.429 66.429 0 0 0 -.053-6.986 8.5 8.5 0 0 0 -7.677-7.392 22.276 22.276 0 0 0 1.449-2.438 1.778 1.778 0 0 0 -1.707-2.6c-2.73-.138-5.5 0-8.234 0-3.132 0-6.134.122-9.018 1.549a14.809 14.809 0 0 0 -7.808 9.606c-.686 2.753-.466 5.774-.424 8.623a9.876 9.876 0 0 0 .282 3.786 5.091 5.091 0 0 0 2.014 3.329c.474.285 1.209.347 1.444.9a16.877 16.877 0 0 1 .392 2.465 12.561 12.561 0 0 0 5.162 7.411c.233.156.473.3.714.435v1.89a7.025 7.025 0 0 0 -1.327.3 5.271 5.271 0 0 0 -1.674.889 3.555 3.555 0 0 0 -.77.859c-4.216.157-8.1 1.618-10.74 5.131a12.374 12.374 0 0 0 -2.468 6.69c-.037.646-.02 1.3-.02 1.944a7.592 7.592 0 0 0 .06 2.188zm22.559-12.782c.111-.03.222-.055.334-.08l.153-.03a4.374 4.374 0 0 1 .571-.052h.022a.929.929 0 0 0 .106-.012c.1.01.2.019.3.035a5.138 5.138 0 0 1 1.291.384 4.373 4.373 0 0 1 1.923 1.657l-1.882 1.882h-3.221l-2.043-2.045a4.323 4.323 0 0 1 1.844-1.538 4.664 4.664 0 0 1 .602-.201zm5.39 3.467c.115.442.746.351 1.044.231a10.666 10.666 0 0 0 3.694-2.549c-.029.232-.047.467-.078.7a23.168 23.168 0 0 1 -2.322 8.016 8.6 8.6 0 0 1 -2.036 2.554q-.8-3.609-1.6-7.217l-.2-.91c.09-.092.179-.185.266-.272l1.074-1.074c.057.169.111.343.158.521zm-5.8 1.851.123-.553h2.545c.061 0 .131 0 .2.005l1.683 7.575.1.453h-6.31zm-3.89-1.531a.871.871 0 0 0 1.148-.56c.016-.062.048-.115.066-.176l.827.826c.2.2.4.421.61.614l-1.719 7.737-.033.151c-1.873-1.255-2.852-3.688-3.458-5.765a31.478 31.478 0 0 1 -1.016-5.264 9.874 9.874 0 0 0 1.949 1.578 10.52 10.52 0 0 0 1.629.859zm26.114-.269a12.076 12.076 0 0 1 1.575 6.048v2.212c0 .209.059.925-.052 1.02-.139.119-.936 0-1.106 0h-15.659a11.982 11.982 0 0 0 3.818-6.07 32.754 32.754 0 0 0 1.379-7.885c.022-.339.027-.68.04-1.02v-.028c4.134.235 7.813 1.978 10.005 5.723zm-11.45-6.052c-.1 2.245-1.838 4-3.743 5a5.618 5.618 0 0 0 -.365-.771.361.361 0 0 0 -.116-.207 5.758 5.758 0 0 0 -2.813-2.323 9.257 9.257 0 0 0 3.207-1.992 5.982 5.982 0 0 0 1.039-1.3 5.443 5.443 0 0 1 .748.14 3.336 3.336 0 0 1 2.043 1.453zm-3.39-1.666c-.059 0-.063-.005 0 0zm-21.13-26.595a13.675 13.675 0 0 1 5.314-10.826c4.735-3.573 11.156-2.622 16.73-2.622 1.011 0 2.985-.222 2.3 1.524a14.37 14.37 0 0 1 -1.455 2.459h-1.555a1.008 1.008 0 0 0 -.545.2.608.608 0 0 0 -.253.387.4.4 0 0 0 .176.366.874.874 0 0 0 .494.113h2a.761.761 0 0 0 .149-.031 7.681 7.681 0 0 1 7.185 7.6c.023 1.27.018 2.542.01 3.813a2.443 2.443 0 0 0 -.325-.085 3 3 0 0 0 -2.331.586 2.061 2.061 0 0 0 -1.867-1.767c-.015 0-.04 0-.059 0a.4.4 0 0 0 -.066-.016 15.086 15.086 0 0 1 -8.1-2.976 3.057 3.057 0 0 0 -2.668-.89c-1.311.225-2.041 1.15-3.128 1.819a14.042 14.042 0 0 1 -4.577 1.7 14.8 14.8 0 0 0 -3.44.682 2.3 2.3 0 0 0 -1.219 1.267 2.525 2.525 0 0 0 -2.073-.324 3.146 3.146 0 0 0 -.707.261c0-1.08-.001-2.161.01-3.24zm4.952 17.834a12.379 12.379 0 0 1 -1.036-3.35c-.168-1.059-.029-1.7-1.041-2.2-2.385-1.159-2.83-3.682-2.874-6.145 0-.037 0-.084-.007-.123 0-.007.006-.012.006-.019 0-.464 0-.927 0-1.39a1.366 1.366 0 0 1 .2-.588c.547-.762 1.393-.385 1.834.31a3.941 3.941 0 0 1 .512 2.01c0 .238 1.448.022 1.448-.388 0-.656-.03-1.319 0-1.974a2.07 2.07 0 0 1 .386-1.341c.417-.489.983-.454 1.575-.542a19.754 19.754 0 0 0 6.463-2c.878-.472 2.314-2.05 3.274-1.479.765.456 1.4 1.127 2.181 1.585a16.832 16.832 0 0 0 6.972 2.077c2.073.347 1.7 2.5 1.7 4.065 0 .232 1.443.025 1.448-.388a3.993 3.993 0 0 1 .379-1.715c.868-1.731 2.146.127 2.172 1.245.049 2.054.021 5.544-2.069 6.726-.555.313-1.246.351-1.576.972a3.273 3.273 0 0 0 -.206 1.178 12.029 12.029 0 0 1 -.39 1.925 12.231 12.231 0 0 1 -3.181 5.355 10.956 10.956 0 0 1 -13.452 1.428 12.279 12.279 0 0 1 -4.718-5.234zm15.594 6.311v1.916a3.741 3.741 0 0 1 -.948 1.36 8.231 8.231 0 0 1 -4.146 2.073 8.762 8.762 0 0 1 -4.455-2.189 5.306 5.306 0 0 1 -.82-1.061c-.039-.067-.076-.136-.113-.205l-.011-.02-.006-.014c-.016-.038-.032-.076-.046-.114v-1.494a13.608 13.608 0 0 0 10.545-.252zm-14.271 3.577a2.9 2.9 0 0 1 1.116-.74 4.608 4.608 0 0 1 1.329-.326 5.726 5.726 0 0 0 1.122 1.474 8.744 8.744 0 0 0 3.128 1.915c-.078.033-.16.062-.236.1a5.705 5.705 0 0 0 -2.872 3.023 9.717 9.717 0 0 1 -2.151-1.574 5.575 5.575 0 0 1 -1.541-2.436 4.457 4.457 0 0 1 -.147-.741.757.757 0 0 1 .252-.695zm-12.805 8.924a11.475 11.475 0 0 1 4.654-6.318 11.679 11.679 0 0 1 6.431-1.775 38.457 38.457 0 0 0 .358 4.662 21.05 21.05 0 0 0 2.59 8.444 7.3 7.3 0 0 0 1.751 1.934h-10.536c-1.552 0-3.17.131-4.718 0-.778-.066-1-.4-1-1.268a19.982 19.982 0 0 1 .47-5.679z" fill="#262626"></path></svg>