<!-- icon666.com - MILLIONS OF FREE VECTOR ICONS --><svg viewBox="0 -4 510.10244 510" xmlns="http://www.w3.org/2000/svg"><path d="m68.730469 502.59375c-1.90625 0-3.582031-1.261719-4.105469-3.097656-.523438-1.832032.234375-3.792969 1.855469-4.796875l24.234375-15.070313-38.777344 22.359375c-2 1.097657-4.511719.429688-5.699219-1.519531s-.632812-4.488281 1.261719-5.761719l79.558594-50.746093-100.652344 58.027343c-2.003906 1.121094-4.535156.453125-5.726562-1.507812-1.191407-1.964844-.621094-4.519531 1.296874-5.78125l76.273438-48.640625-87.921875 50.808594c-1.996094 1.15625-4.550781.515624-5.765625-1.445313-1.214844-1.964844-.648438-4.539063 1.277344-5.808594l108.945312-72.3125-104.164062 60.136719c-1.988282.960938-4.378906.253906-5.519532-1.636719-1.136718-1.890625-.648437-4.335937 1.132813-5.644531l41.957031-26.828125-36.660156 21.113281c-1.980469 1.101563-4.476562.460938-5.683594-1.457031-1.207031-1.917969-.703125-4.445313 1.144532-5.753906l77.507812-53.121094-70.167969 40.535156c-1.980469 1.175781-4.539062.566407-5.777343-1.378906-1.238282-1.941406-.707032-4.519531 1.195312-5.816406l56.421875-39.476563-48.296875 27.886719c-1.988281 1.15625-4.53125.527344-5.753906-1.417969-1.222656-1.945312-.6875-4.507812 1.210937-5.800781l10.925781-7.441406-3.414062 1.964843c-1.972656 1.125-4.476562.507813-5.703125-1.398437-1.226563-1.910156-.746094-4.445313 1.09375-5.769531l5.972656-4.265625c-1.621093-.046875-3.074219-1.007813-3.753906-2.480469s-.464844-3.207031.554687-4.46875l11.09375-13.761719c-1.839843-.1875-3.347656-1.539062-3.738281-3.347656s.429688-3.660156 2.03125-4.589844l15.820313-9.128906c1.777344-1.03125 4.039062-.648437 5.378906.910156 1.359375 1.542969 1.425781 3.835938.160156 5.453125l-9.667968 11.949219 50.160156-28.953125c1.964844-1.085938 4.433594-.464844 5.648437 1.421875 1.21875 1.890625.761719 4.398437-1.042969 5.734375l-.621093.453125 24.566406-14.179687c1.984375-1.117188 4.496094-.480469 5.707031 1.449218 1.207032 1.925782.691406 4.464844-1.175781 5.769532l-10.898437 7.429687 34.433593-19.832031c1.976563-1.117188 4.480469-.496094 5.703125 1.417968 1.21875 1.914063.726563 4.449219-1.121094 5.769532l-56.394531 39.457031 80.792969-46.644531c1.976562-1.085938 4.460938-.449219 5.664062 1.460937 1.207032 1.910157.714844 4.425781-1.117187 5.742188l-77.484375 53.113281 104.492188-60.316406c1.996093-1.066406 4.480468-.390625 5.660156 1.546875 1.175781 1.933593.636718 4.453125-1.230469 5.734375l-42.035156 26.855468 59.160156-34.136718c1.992187-1.097656 4.492187-.441406 5.691406 1.488281 1.195313 1.933594.667969 4.464844-1.203125 5.757813l-108.953125 72.304687 137.832031-79.550781c2.003907-1.117188 4.535157-.453125 5.726563 1.511718 1.191406 1.960938.617187 4.515626-1.296875 5.777344l-76.296875 48.640625 96.867187-55.929687c2-1.066406 4.484376-.390625 5.660157 1.546875 1.175781 1.933593.636719 4.453125-1.230469 5.734375l-79.546875 50.816406 100.691406-58.097656c2.011719-1.105469 4.539063-.421875 5.71875 1.542968 1.179688 1.96875.59375 4.519532-1.332031 5.773438l-24.140625 15.007812 38.632813-22.324218c2-1.054688 4.480468-.363282 5.648437 1.578125 1.164063 1.941406.609375 4.457031-1.261719 5.726562l-34.136718 21.292969 49.5625-28.597656c1.996093-1.113282 4.511718-.460938 5.714843 1.484375 1.199219 1.941406.65625 4.488281-1.234375 5.769531l-107.484375 70.402344 128.851563-74.421875c1.308594-.78125 2.933594-.808594 4.265625-.066407 1.335937.738282 2.171875 2.136719 2.195312 3.660157.023438 1.523437-.765625 2.945312-2.074219 3.730469l-13.066406 8.105468 21.582032-12.457031c2.007812-1.148437 4.566406-.488281 5.765624 1.492187 1.199219 1.980469.601563 4.554688-1.34375 5.800782l-59.734374 37.941406 71.78125-41.445312c1.996093-1.101563 4.5-.4375 5.695312 1.5 1.191406 1.941406.648438 4.476562-1.230469 5.761718l-90.898437 59.542969 107.359375-61.984375c2.003906-1.140625 4.550781-.484375 5.75 1.484375 1.203125 1.964844.625 4.53125-1.304688 5.792969l-73.132812 47.34375 87.222656-50.347656c1.988281-1.113282 4.5-.46875 5.707031 1.46875 1.203125 1.933593.675782 4.476562-1.203125 5.769531l-93.867187 62.914062 111.546875-64.398437c1.992187-1.101563 4.492187-.445313 5.691406 1.488281 1.195313 1.929687.667969 4.460937-1.203125 5.753906l-76.730469 50.742188 82.363281-47.558594c2.003907-1.199219 4.597657-.566406 5.824219 1.421875 1.226563 1.984375.625 4.589844-1.34375 5.839844l-57.507812 37.863281 57.5-33.195313c1.980469-1.175781 4.539062-.566406 5.777343 1.375 1.238282 1.945313.707032 4.519532-1.195312 5.820313l-70.777344 49.492187 71-40.960937c1.960938-1.105469 4.441406-.5 5.671875 1.386719 1.226563 1.886718.78125 4.402344-1.023437 5.75l-59.40625 43.433594 58.777344-33.9375c1.945312-1.085938 4.402343-.492188 5.632812 1.367187 1.234375 1.859375.828125 4.351563-.933594 5.722656l-42.664062 32.351563 41.042968-23.6875c1.933594-1.105469 4.390626-.535156 5.640626 1.304687 1.253906 1.839844.882812 4.332031-.851563 5.726563l-27.75 22.074218 24.917969-14.386718c1.859375-1.074219 4.226562-.597656 5.527344 1.113281 1.300781 1.710937 1.125 4.121094-.410157 5.628906l-19.839843 19.421875 16.324218-9.386718c1.882813-1.109376 4.300782-.617188 5.597656 1.140624 1.300782 1.757813 1.058594 4.210938-.554687 5.683594l-2.398437 2.226563c1.558593-.039063 3.011718.765625 3.800781 2.109375.785156 1.34375.777343 3.007812-.019531 4.34375l-2.832032 4.761718c1.695313.414063 2.964844 1.816407 3.210938 3.542969.246094 1.726563-.582032 3.429688-2.09375 4.300781l-9.769532 5.628907c-1.683593.976562-3.8125.691406-5.175781-.691407-1.367187-1.386718-1.625-3.519531-.628906-5.1875l1.578125-2.773437-14.8125 8.535156c-1.882812 1.109375-4.300781.617188-5.597656-1.140625-1.296875-1.757812-1.058594-4.214844.554687-5.6875l.699219-.65625-12.9375 7.464844c-1.859375 1.074219-4.226562.597656-5.527344-1.113281-1.300781-1.710938-1.125-4.121094.410156-5.625l19.847657-19.414063-45.320313 26.171875c-1.933594 1.101563-4.386718.53125-5.640625-1.304687-1.253906-1.839844-.882812-4.332032.851563-5.726563l27.761718-22.078125-50.433593 29.109375c-1.949219 1.109375-4.421875.519531-5.664063-1.347656-1.242187-1.867187-.824218-4.378906.953125-5.746094l42.667969-32.324219-68.265625 39.425782c-1.960937 1.105468-4.445313.5-5.671875-1.386719-1.230469-1.882813-.785156-4.402344 1.019531-5.746094l59.382813-43.410156-87.578125 50.535156c-1.957031.988281-4.34375.335938-5.523438-1.515625-1.175781-1.847656-.761719-4.289062.960938-5.644531l70.824219-49.492187-98.261719 56.652343c-1.992188 1.113281-4.511719.460938-5.710938-1.484375-1.199219-1.941406-.65625-4.488281 1.230469-5.769531l57.515625-37.855469-78.164063 45.109375c-1.992187 1.097657-4.492187.441407-5.691406-1.488281-1.195312-1.933594-.667968-4.464844 1.203125-5.757812l76.800781-50.773438-100.542968 58.019531c-1.972656 1.0625-4.433594.417969-5.632813-1.480469-1.195312-1.898437-.71875-4.398437 1.09375-5.722656l93.867188-62.890625-121.445313 70.09375c-2 1.117188-4.523437.457031-5.71875-1.496093-1.195312-1.953126-.640625-4.5 1.265625-5.777344l73.144531-47.339844-94.632812 54.613281c-1.992188 1.082031-4.480469.417969-5.671875-1.511719-1.1875-1.925781-.664063-4.449218 1.199219-5.742187l90.898437-59.496094-115.617187 66.75c-2.003906 1.082031-4.503906.40625-5.683594-1.539062-1.179688-1.945313-.625-4.476563 1.261719-5.75l59.828125-37.9375-78.421875 45.226562c-2.007813 1.070313-4.503907.378907-5.671875-1.574219-1.167969-1.953124-.597656-4.476562 1.292968-5.738281l13.101563-8.132812-26.726563 15.445312c-1.992187 1.082031-4.484374.417969-5.671874-1.511719-1.191407-1.925781-.664063-4.449218 1.199218-5.742187l107.398438-70.402344-134.5 77.65625c-2.007813 1.085938-4.511719.402344-5.6875-1.554687-1.179688-1.953125-.609375-4.488282 1.292968-5.75l34.132813-21.292969-49.585937 28.597656c-.648438.386719-1.382813.59375-2.136719.605469zm0 0" fill="#cad0d7"></path><path d="m171.722656 145.207031c-1.894531.003907-3.5625-1.242187-4.097656-3.054687-.539062-1.816406.183594-3.765625 1.773438-4.792969l31.394531-20.3125-46.472657 26.839844c-1.988281 1.132812-4.515624.496093-5.726562-1.445313-1.214844-1.9375-.683594-4.492187 1.203125-5.785156l79.046875-53.519531-79.734375 46.082031c-2.015625 1.222656-4.640625.578125-5.863281-1.433594-1.222656-2.015625-.582032-4.640625 1.433594-5.863281l9.53125-6.066406-7.542969 4.34375c-1.988281 1.070312-4.464844.40625-5.652344-1.515625-1.1875-1.917969-.675781-4.429688 1.171875-5.730469l43.203125-28.554687-41.085937 23.65625c-1.992188 1.097656-4.492188.445312-5.691407-1.488282-1.195312-1.933594-.667969-4.464844 1.203125-5.757812l33.03125-21.929688-29.558594 17.066406c-1.964843 1.148438-4.484374.550782-5.726562-1.355468s-.769531-4.453125 1.074219-5.785156l55.980469-40.789063-50.664063 29.214844c-1.96875 1.113281-4.460937.5-5.683594-1.402344-1.226562-1.898437-.757812-4.421875 1.066407-5.753906l25.6875-18.433594-17.683594 10.238281c-1.878906 1.035156-4.230469.515625-5.496094-1.214844-1.269531-1.730468-1.054688-4.132812.496094-5.609374l21.335937-19.398438c-1.914062.613281-3.988281-.191406-4.992187-1.925781-1.179688-2.039063-.484375-4.648438 1.550781-5.828125l33.210937-19.183594c1.878907-1.035156 4.234376-.511719 5.5 1.214844 1.265626 1.730468 1.054688 4.132812-.496093 5.609375l-21.019531 19.117187 58.085937-33.578125c1.96875-1.113281 4.460937-.5 5.683594 1.402344 1.226562 1.898437.757812 4.421875-1.066407 5.753906l-25.683593 18.441407 45.226562-26.078126c1.957031-1.105468 4.441407-.5 5.667969 1.386719 1.230469 1.886719.785156 4.402344-1.019531 5.75l-56.003907 40.8125 78.804688-45.492187c1.992188-1.132813 4.527344-.488282 5.734375 1.460937 1.210937 1.945313.664063 4.503907-1.238281 5.785157l-33.015625 21.914062 44.863281-25.90625c1.996094-1.160156 4.550781-.519531 5.765625 1.445312 1.214844 1.960938.648437 4.535157-1.277344 5.808594l-43.238281 28.578125 53.585938-30.933593c2.003906-1.085938 4.503906-.410157 5.683593 1.539062 1.179688 1.945312.625 4.472656-1.261719 5.746094l-9.480468 6.042968 14.558594-8.398437c1.988281-1.132813 4.515624-.496094 5.730468 1.445313 1.210938 1.9375.679688 4.492187-1.207031 5.785156l-79.019531 53.484375 88.363281-51.027344c1.996094-1.085937 4.488281-.414063 5.675781 1.523437 1.183594 1.9375.644532 4.464844-1.230468 5.746094l-31.574219 20.421875 34.507812-19.917969c1.972657-1.109374 4.464844-.484374 5.683594 1.421876 1.21875 1.902343.742187 4.429687-1.089844 5.753906l-69.488281 48.972656 73.652344-42.460938c1.96875-1.109374 4.464844-.484374 5.683594 1.421876 1.21875 1.902343.738281 4.429687-1.09375 5.753906l-49.902344 35.183594 50.148437-28.945313c1.941407-1.101563 4.402344-.523437 5.648438 1.328125 1.242187 1.847656.855469 4.34375-.894531 5.730469l-48.433594 37.628906 46.078125-26.578125c1.90625-1.101562 4.335937-.566406 5.609375 1.226562 1.273437 1.796876.972656 4.265626-.695313 5.699219l-32.203125 27.589844 26.453125-15.265625c1.828125-1.0625 4.15625-.621094 5.476563 1.027344 1.316406 1.652344 1.226562 4.019531-.210938 5.566406l-15.933594 17.203125 6.828126-3.90625c1.660156-.972656 3.769531-.695313 5.121093.675781 1.355469 1.355469 1.644531 3.449219.699219 5.117188l-5.480469 9.601562c.28125.28125.527344.59375.726563.9375 1.179687 2.042969.480468 4.652344-1.5625 5.828125l-5.453125 3.140625c-1.664063.953125-3.761719.675782-5.121094-.675781-1.363281-1.351563-1.652344-3.445313-.714844-5.117187l2.398438-4.265626-17.671875 10.238282c-1.828125 1.058594-4.152344.625-5.472656-1.023438-1.320313-1.648437-1.234376-4.015625.199218-5.5625l15.949219-17.214844-41.644531 23.953126c-1.902344 1.078124-4.3125.542968-5.578125-1.242188-1.265625-1.78125-.980469-4.234375.664062-5.675781l32.160157-27.613281-60.285157 34.796874c-1.941406 1.109376-4.410156.53125-5.660156-1.328124-1.246094-1.855469-.847656-4.359376.914063-5.738282l48.417968-37.570312-77.847656 44.945312c-1.972656 1.105469-4.464844.484375-5.683594-1.421875s-.742187-4.429687 1.089844-5.757812l49.878906-35.207031-73.738281 42.574218c-1.976563 1.152344-4.511719.542969-5.746094-1.386718-1.234375-1.929688-.722656-4.488282 1.15625-5.800782l69.539063-48.960937-97.765625 56.429687c-.648438.375-1.386719.578125-2.132813.578125zm0 0" fill="#636c77"></path><path d="m217.246094 502.652344c-1.875.003906-3.53125-1.214844-4.085938-3.003906-.554687-1.789063.125-3.730469 1.671875-4.785157l51.667969-35.433593-70.960938 40.960937c-1.984374 1.132813-4.507812.503906-5.726562-1.425781-1.21875-1.933594-.699219-4.484375 1.175781-5.785156l80.273438-55.191407-87.175781 50.34375c-1.988282 1.136719-4.515626.496094-5.730469-1.441406-1.214844-1.941406-.679688-4.492187 1.207031-5.785156l84.207031-57.035157-88.300781 50.933594c-1.988281 1.070313-4.464844.410156-5.652344-1.511718-1.1875-1.917969-.675781-4.433594 1.171875-5.730469l71.617188-47.234375-73.445313 42.394531c-1.984375 1.097656-4.484375.453125-5.683594-1.472656-1.203124-1.925781-.6875-4.453125 1.171876-5.753907l67.652343-45.59375-68.867187 39.746094c-1.992188 1.117188-4.511719.464844-5.710938-1.480468-1.199218-1.945313-.65625-4.488282 1.230469-5.773438l34.742187-22.945312-33.664062 19.429687c-1.976562 1.089844-4.460938.449219-5.667969-1.457031-1.203125-1.910156-.714843-4.425782 1.117188-5.742188l42.898437-29.5625-42.042968 24.269532c-1.949219 1.125-4.433594.546874-5.683594-1.324219-1.25-1.871094-.832032-4.390625.957031-5.757813l49.109375-37.460937-48.214844 27.828125c-1.921875 1.09375-4.359375.535156-5.617187-1.28125-1.257813-1.816406-.921875-4.296875.777343-5.707032l34.09375-27.949218-31.984374 18.46875c-1.894532 1.09375-4.308594.578125-5.589844-1.195313-1.28125-1.773437-1.015625-4.226562.613281-5.683593l18.910156-16.855469-15.75 9.089843c-1.855469 1.042969-4.199219.558594-5.488281-1.132812-1.289062-1.695312-1.132812-4.082031.367188-5.59375l6.730468-6.664062-2.660156 1.527343c-1.441406.832031-3.238281.746094-4.597656-.214843-1.355469-.960938-2.03125-2.628907-1.726563-4.265626l2.015625-10.691406c-.996094-.320312-1.832031-1.007812-2.347656-1.917968-1.175781-2.039063-.480469-4.640626 1.554688-5.820313l4.265624-2.449219c1.441407-.832031 3.238282-.746094 4.59375.214844 1.359376.964844 2.035157 2.628906 1.730469 4.265625l-1.707031 8.847656 23.148438-13.363281c1.859374-1.074219 4.226562-.605469 5.53125 1.101562 1.304687 1.703126 1.140624 4.113282-.382813 5.625l-6.734375 6.671876 23.246094-13.421876c1.894531-1.09375 4.308594-.578124 5.589844 1.191407 1.28125 1.773437 1.015624 4.226562-.617188 5.683593l-18.917969 16.863282 41.183594-23.773438c1.921875-1.09375 4.359375-.539062 5.617187 1.277344 1.257813 1.820312.917969 4.296875-.78125 5.710938l-34.132812 27.964843 60.585938-34.988281c1.949218-1.125 4.4375-.542969 5.683593 1.328125 1.25 1.871094.832031 4.386719-.953125 5.753906l-49.085937 37.445313 77.226562-44.585938c1.984375-1.132812 4.507813-.503906 5.726563 1.425782 1.21875 1.933593.699218 4.484374-1.175782 5.785156l-42.925781 29.566406 63.753907-36.804688c1.992187-1.113281 4.511718-.460937 5.710937 1.484376 1.203125 1.941406.660156 4.488281-1.230469 5.769531l-34.824218 23.039062 52.453124-30.28125c1.292969-.808593 2.917969-.867187 4.265626-.152343 1.34375.714843 2.207031 2.097656 2.261718 3.621093.050782 1.523438-.710937 2.957031-2.003906 3.765625l-67.667969 45.601563 91.578125-52.90625c1.996094-1.15625 4.554688-.515625 5.769532 1.445312 1.214843 1.964844.644531 4.539063-1.28125 5.808594l-71.59375 47.207031 66.679687-38.496094c1.988281-1.132812 4.515625-.496093 5.730469 1.445313 1.210937 1.9375.679687 4.492187-1.207032 5.785156l-84.199218 57.050781 77.847656-44.960937c1.984375-1.132813 4.507812-.503906 5.726562 1.429687 1.21875 1.929688.699219 4.480469-1.175781 5.78125l-80.257812 55.210938 72.671875-41.941406c1.976562-1.117188 4.484375-.488282 5.703125 1.433594 1.214843 1.921874.710937 4.457031-1.148438 5.769531l-51.6875 35.464843 43.425781-25.074218c1.996094-1.113282 4.515626-.460938 5.714844 1.484375 1.199219 1.941406.65625 4.488281-1.234375 5.769531l-5.886719 3.890625c1.921876-.214844 3.75.886719 4.453126 2.6875.707031 1.800781.109374 3.851563-1.449219 4.996094l-27.589844 19.984375 17.488281-10.097656c1.90625-1.101563 4.34375-.566407 5.617188 1.234374 1.269531 1.796876.964844 4.273438-.710938 5.703126l-24.84375 21.25 9.105469-5.257813c1.894531-1.09375 4.308594-.578125 5.59375 1.195313 1.28125 1.773437 1.015625 4.226562-.617187 5.683593l-11.296876 10.070313c.371094.3125.683594.691406.921876 1.117187 1.175781 2.039063.484374 4.648438-1.554688 5.828125l-20.523438 11.828125c-1.875.992188-4.195312.457031-5.445312-1.257812-1.25-1.714844-1.050781-4.089844.472656-5.570313l.9375-.851562-13.378906 7.679687c-1.90625 1.078125-4.324219.542969-5.589844-1.246093-1.265625-1.789063-.972656-4.246094.679688-5.683594l24.816406-21.230469-48.8125 28.160156c-1.964844 1.128907-4.46875.519531-5.703125-1.382812-1.230469-1.902344-.761719-4.4375 1.070313-5.769531l27.589843-19.984376-47.011719 27.210938c-1.988281 1.070312-4.464843.410156-5.652343-1.511719-1.1875-1.917969-.671875-4.433593 1.171875-5.730469l1.128906-.742187-13.867188 7.996094c-.65625.382812-1.40625.582031-2.167968.578125zm0 0" fill="#a9b0bb"></path><path d="m303.007812 405.558594c-1.769531 0-3.351562-1.089844-3.984374-2.738282-.632813-1.652343-.183594-3.519531 1.132812-4.699218l28.75-25.839844-32.179688 18.578125c-1.945312 1.078125-4.394531.484375-5.625-1.371094-1.230468-1.851562-.832031-4.335937.914063-5.714843l12.886719-9.785157-14.730469 8.53125c-1.933594 1.148438-4.429687.597657-5.699219-1.261719-1.269531-1.859374-.878906-4.382812.894532-5.769531l20.53125-16.425781-25.4375 14.675781c-1.929688 1.078125-4.359376.503907-5.605469-1.320312-1.242188-1.824219-.886719-4.300781.820312-5.703125l16.902344-13.507813-24.746094 14.3125c-1.941406 1.125-4.421875.550781-5.675781-1.304687-1.253906-1.859375-.855469-4.375.914062-5.753906l7.96875-6.203126-21.921874 12.648438c-2.023438 1.058594-4.527344.332031-5.671876-1.648438-1.144531-1.976562-.523437-4.507812 1.40625-5.734374l75.402344-43.519532c1.9375-1.125 4.417969-.554687 5.671875 1.304688 1.253907 1.859375.855469 4.371094-.910156 5.75l-7.964844 6.1875 20.40625-11.765625c1.929688-1.097657 4.375-.53125 5.628907 1.304687 1.25 1.832032.886718 4.316406-.835938 5.71875l-16.910156 13.507813 25-14.441407c1.933594-1.121093 4.410156-.5625 5.667968 1.285157 1.261719 1.851562.882813 4.359375-.871093 5.75l-20.53125 16.425781 24.277343-14.003906c1.945313-1.101563 4.410157-.511719 5.652344 1.347656 1.238282 1.859375.832032 4.363281-.933594 5.734375l-12.875 9.796875 9.382813-5.402344c1.878906-1.007812 4.210937-.476562 5.464844 1.246094 1.257812 1.71875 1.050781 4.101562-.480469 5.582031l-39.679688 35.644531c.300782.285157.558594.613282.769532.972657 1.175781 2.039062.476562 4.648437-1.5625 5.828125l-19.371094 11.175781c-.675781.410156-1.453125.621094-2.242188.605469zm0 0" fill="#e4e8eb"></path><path d="m200.078125 407.769531c-1.671875 0-3.1875-.976562-3.878906-2.496093-.695313-1.523438-.433594-3.308594.660156-4.570313l6.886719-7.910156-10.238282 5.890625c-1.992187 1.214844-4.589843.605468-5.835937-1.367188-1.242187-1.976562-.671875-4.582031 1.285156-5.851562l18.152344-12.417969-20.820313 12.007813c-1.964843 1.117187-4.457031.507812-5.6875-1.382813-1.230468-1.894531-.773437-4.417969 1.042969-5.761719l27.445313-19.941406-31.335938 18.132812c-1.945312 1.160157-4.457031.597657-5.722656-1.277343-1.265625-1.878907-.84375-4.417969.960938-5.789063l26.785156-20.84375-31.410156 18.089844c-1.941407 1.085938-4.390626.5-5.628907-1.347656s-.847656-4.335938.894531-5.71875l13.371094-10.351563-16.273437 9.386719c-1.917969 1.117188-4.371094.582031-5.644531-1.234375-1.273438-1.820313-.941407-4.308594.761718-5.726563l11.667969-9.753906-14.628906 8.4375c-1.726563 1-3.921875.667969-5.273438-.804687-1.351562-1.46875-1.503906-3.679688-.367187-5.320313l11.332031-16.324218-5.722656 3.300781c-2.027344 1.058593-4.527344.335937-5.671875-1.644531-1.144532-1.980469-.527344-4.511719 1.402344-5.738282l22.230468-12.796875c1.730469-1 3.921875-.667969 5.273438.800781 1.355468 1.472657 1.507812 3.683594.367187 5.324219l-11.367187 16.316407 40.105468-23.140626c1.914063-1.09375 4.34375-.550781 5.609376 1.25 1.265624 1.804688.953124 4.277344-.726563 5.703126l-11.621094 9.777343 29.011719-16.730469c1.941406-1.109374 4.410156-.53125 5.65625 1.324219 1.246094 1.859375.851562 4.363281-.910156 5.738281l-13.347656 10.335938 30.089843-17.382812c1.9375-1.101563 4.398438-.523438 5.644531 1.328124 1.246094 1.847657.855469 4.34375-.890624 5.730469l-26.78125 20.84375 48.351562-27.902343c1.964844-1.117188 4.457031-.511719 5.6875 1.382812s.773438 4.417969-1.046875 5.757812l-27.441406 19.933594 46.933593-27.074218c1.980469-1.101563 4.476563-.460938 5.683594 1.457031 1.207032 1.917969.707032 4.441406-1.144531 5.753906l-76.089844 52.050781c.367188 1.371094.03125 2.835938-.898437 3.910156l-16.066406 18.464844c.984374 2.019532.238281 4.453125-1.707032 5.574219l-6.980468 4.027344c-.648438.378906-1.382813.574219-2.132813.570312zm0 0" fill="#e4e8eb"></path><path d="m255.277344 366c-1.847656-.003906-3.488282-1.199219-4.054688-2.960938-.566406-1.761718.070313-3.691406 1.574219-4.769531l3.414063-2.457031-14.875 8.53125c-1.949219 1.109375-4.425782.519531-5.664063-1.347656-1.242187-1.867188-.824219-4.375.953125-5.742188l34.03125-25.753906-49.972656 28.84375c-1.976563 1.117188-4.488282.484375-5.703125-1.433594-1.214844-1.921875-.710938-4.460937 1.148437-5.769531l21.332032-14.761719-29.097657 16.835938c-1.980469 1.101562-4.476562.460937-5.683593-1.457032-1.207032-1.917968-.707032-4.445312 1.144531-5.753906l16.476562-11.289062-21.503906 12.414062c-1.941406 1.109375-4.410156.53125-5.65625-1.328125-1.246094-1.855469-.847656-4.359375.910156-5.738281l37.761719-29.175781-43.921875 25.355469c-1.972656 1.105468-4.464844.484374-5.683594-1.421876s-.738281-4.429687 1.09375-5.753906l4.121094-2.910156-4.265625 2.472656c-1.953125 1.117188-4.4375.53125-5.679688-1.347656-1.242187-1.875-.8125-4.390625.976563-5.75l9.320313-7-7.3125 4.214844c-1.882813 1.050781-4.246094.535156-5.519532-1.199219-1.273437-1.738281-1.054687-4.148437.507813-5.625l14.507812-13.289063-7.457031 4.269532c-1.519531.875-3.421875.734375-4.792969-.359375-1.375-1.09375-1.9375-2.914063-1.421875-4.589844l4.875-15.863281c-1.429687-.683594-2.359375-2.101563-2.421875-3.683594-.0625-1.585938.757813-3.070312 2.128907-3.859375l4.609374-2.648437c1.519532-.878907 3.421876-.734376 4.796876.359374 1.367187 1.09375 1.929687 2.910157 1.414062 4.582032l-4.058594 13.246094 31.570313-18.246094c1.878906-1.046875 4.246093-.53125 5.519531 1.203125s1.054688 4.144531-.507812 5.625l-14.507813 13.292969 34.945313-20.164063c1.949218-1.117187 4.433593-.527344 5.675781 1.347656 1.242187 1.875.816406 4.390625-.976563 5.753907l-9.316406 6.996093 24.480469-14.132812c1.972656-1.105469 4.464843-.484375 5.683593 1.421875s.738282 4.429687-1.09375 5.757812l-4.152343 2.941406 17.558593-10.144531c1.945313-1.109375 4.410157-.53125 5.660157 1.328125 1.246093 1.855469.847656 4.359375-.914063 5.738282l-37.734375 29.183593 62.820313-36.269531c1.984375-1.132812 4.507812-.503906 5.726562 1.429688 1.21875 1.933593.699219 4.480468-1.175781 5.78125l-16.554687 11.332031 23.945312-13.8125c1.976562-1.117188 4.488281-.488281 5.703125 1.433593 1.214844 1.921876.710937 4.457032-1.148437 5.765626l-21.375 14.78125 18.234374-10.519532c1.949219-1.109375 4.425782-.523437 5.664063 1.34375 1.242187 1.871094.824219 4.378906-.953125 5.746094l-33.980469 25.789062 31.171875-18c1.96875-1.109374 4.460938-.496093 5.6875 1.402344 1.222656 1.902344.753906 4.425782-1.070312 5.757813l-3.480469 2.492187.078125-.042968c1.882812-1.164063 4.347656-.695313 5.667969 1.085937 1.320312 1.777344 1.0625 4.273437-.601563 5.742187l-16.117187 15.214844c1.570312.015625 3.027343.816406 3.882812 2.132813 1.179688 2.039062.484375 4.648437-1.554687 5.828125l-28.082032 16.214844c-1.886718 1.164062-4.351562.691406-5.671874-1.085938-1.320313-1.78125-1.058594-4.273438.601562-5.742188l14.601562-13.789062-44.125 25.453125c-.652343.367187-1.386718.558594-2.136718.546875zm0 0" fill="#e3b692"></path><path d="m261.167969 408.171875c-1.664063-.003906-3.171875-.96875-3.867188-2.480469-.695312-1.507812-.453125-3.285156.625-4.550781l7.414063-8.695313-23.636719 13.652344c-1.8125 1.046875-4.117187.625-5.441406-.996094-1.324219-1.621093-1.273438-3.964843.117187-5.53125l14.15625-15.90625-25.941406 14.976563c-1.769531 1.011719-4.007812.628906-5.34375-.914063-1.332031-1.542968-1.390625-3.8125-.136719-5.417968l10.933594-13.894532-4.515625 2.613282c-1.320312.773437-2.953125.78125-4.28125.019531s-2.144531-2.179687-2.140625-3.710937c0-1.53125.824219-2.941407 2.15625-3.699219l23.714844-13.652344c1.769531-1.023437 4.015625-.644531 5.355469.902344 1.339843 1.542969 1.394531 3.820312.128906 5.429687l-10.929688 13.839844 29.628906-17.066406c1.8125-1.046875 4.117188-.625 5.441407.996094 1.324219 1.625 1.273437 3.96875-.117188 5.53125l-14.15625 15.914062 22.1875-12.796875c1.796875-1.042969 4.082031-.636719 5.410157.960937 1.332031 1.59375 1.320312 3.914063-.027344 5.496094l-7.40625 8.6875 10.289062-5.972656c1.324219-.839844 3-.890625 4.371094-.125 1.367188.761719 2.207031 2.214844 2.183594 3.785156-.019532 1.566406-.898438 2.996094-2.285156 3.722656l-31.761719 18.34375c-.648438.367188-1.382813.550782-2.125.539063zm0 0" fill="#eb5463"></path><path d="m86.488281 502.175781c-1.734375 0-3.300781-1.054687-3.953125-2.664062-.652344-1.613281-.261718-3.457031.984375-4.667969l5.929688-5.757812-16.910157 9.761718c-1.886718 1.164063-4.351562.695313-5.671874-1.085937-1.320313-1.78125-1.058594-4.273438.601562-5.742188l18.773438-17.75-26.25 15.191407c-1.902344 1.109374-4.335938.585937-5.617188-1.207032-1.28125-1.792968-.988281-4.261718.679688-5.707031l17.636718-15.359375-18.945312 10.90625c-1.867188 1.125-4.285156.660156-5.601563-1.082031-1.316406-1.738281-1.109375-4.191407.484375-5.683594l17.917969-17.214844-13.378906 7.683594c-1.851563 1.015625-4.164063.527344-5.445313-1.152344-1.28125-1.675781-1.144531-4.039062.324219-5.554687l8.390625-8.390625c-1.527344-.609375-2.566406-2.039063-2.675781-3.679688-.109375-1.636719.730469-3.195312 2.160156-4l19.773437-11.417969c1.851563-1.027343 4.179688-.542968 5.464844 1.144532 1.285156 1.683594 1.140625 4.058594-.34375 5.570312l-3.882812 3.875 15.820312-9.128906c1.867188-1.125 4.285156-.660156 5.601563 1.078125 1.316406 1.742187 1.109375 4.195313-.480469 5.6875l-17.914062 17.261719 26.335937-15.195313c1.898437-1.089843 4.3125-.5625 5.585937 1.21875 1.273438 1.78125.996094 4.234375-.644531 5.683594l-17.621093 15.378906 19.726562-11.394531c1.886719-1.164062 4.347656-.695312 5.671875 1.085938 1.320313 1.777343 1.058594 4.273437-.601563 5.742187l-18.773437 17.757813 15.359375-8.875c1.867188-1.105469 4.265625-.636719 5.578125 1.09375 1.308594 1.730468 1.113281 4.167968-.457031 5.664062l-8.003906 7.765625c1.875.121094 3.453124 1.453125 3.878906 3.285156.429687 1.832031-.390625 3.726563-2.019532 4.667969l-25.363281 14.644531c-.644531.371094-1.378906.566407-2.125.5625zm0 0" fill="#636c77"></path><path d="m252.71875 323.058594c-1.855469.003906-3.5-1.195313-4.066406-2.960938-.566406-1.769531.074218-3.699218 1.582031-4.777344l19.902344-14.265624-30.652344 17.6875c-1.957031 1.097656-4.429687.492187-5.65625-1.386719-1.230469-1.878907-.792969-4.386719.996094-5.738281l47.558593-34.988282-57.285156 33.066406c-1.976562 1.121094-4.484375.5-5.703125-1.414062-1.222656-1.914062-.730469-4.449219 1.121094-5.769531l67.414063-47.300781-74.96875 43.28125c-2.007813 1.238281-4.644532.617187-5.882813-1.394532-1.238281-2.011718-.613281-4.644531 1.394531-5.882812l36.925782-24.261719-43.324219 25.019531c-1.996094 1.160156-4.554688.519532-5.769531-1.445312-1.214844-1.964844-.648438-4.535156 1.28125-5.808594l60.816406-40.15625-68.488282 39.542969c-2.003906 1.242187-4.632812.625-5.875-1.378907-1.242187-2.003906-.625-4.632812 1.378907-5.875l77.414062-51.242187-84.660156 48.871094c-1.988281 1.132812-4.515625.496093-5.730469-1.445313-1.210937-1.9375-.679687-4.492187 1.207032-5.78125l94.054687-63.660156-98.292969 56.761719c-1.992187 1.15625-4.542968.523437-5.761718-1.429688-1.21875-1.957031-.667969-4.523437 1.246093-5.804687l83.976563-56.464844-83.738282 48.339844c-1.984374 1.101562-4.484374.453125-5.6875-1.472656-1.199218-1.921876-.683593-4.453126 1.171876-5.753907l85.191406-57.335937-82.457032 47.632812c-2.011718 1.179688-4.59375.527344-5.804687-1.460937s-.601563-4.582031 1.367187-5.824219l26.980469-17.238281-34.261719 19.746093c-1.988281 1.097657-4.492187.445313-5.6875-1.488281-1.199218-1.933593-.671874-4.464843 1.199219-5.757812l78.011719-51.703125-82.601562 47.691406c-1.992188 1.136719-4.527344.492188-5.734376-1.457031-1.210937-1.949219-.664062-4.503907 1.238282-5.785157l85.261718-56.882812-82.824218 47.785156c-2.003906 1.238282-4.632813.617188-5.875-1.386718-1.238282-2.003907-.617188-4.636719 1.386718-5.875l66.492188-43.734376-66.746094 38.539063c-1.996094 1.113281-4.511718.460937-5.714844-1.484375-1.199218-1.941406-.65625-4.488281 1.234376-5.769531l21.734374-14.363281-21.15625 12.210937c-1.953124.886719-4.261718.183594-5.390624-1.644531-1.125-1.824219-.722657-4.207032.945312-5.554688l6.238281-4.132812-4.1875 2.425781c-1.753906 1.007813-3.972656.652344-5.316406-.855469-1.347656-1.503906-1.457031-3.75-.257813-5.375l5.316407-7.210937c-1.757813-.320313-3.128907-1.699219-3.4375-3.460938-.308594-1.757812.511719-3.523437 2.054687-4.421875l13.285156-7.683594c1.75-1.007812 3.96875-.648437 5.3125.855469 1.347657 1.507813 1.453126 3.75.253907 5.375l-3.816407 5.179688 109.492188-63.207031c1.988281-1.097657 4.492188-.441407 5.6875 1.488281 1.199219 1.933593.671875 4.464843-1.199219 5.757812l-6.09375 4.027344 22.828125-13.242187c1.992188-1.117188 4.511719-.464844 5.710938 1.480468 1.203125 1.945313.660156 4.488282-1.230469 5.773438l-21.785156 14.410156 67.914062-39.203125c2-1.15625 4.554688-.515625 5.769531 1.449219 1.214844 1.960937.648438 4.535156-1.28125 5.804687l-66.558593 43.820313 71.132812-41.070313c1.996094-1.132812 4.527344-.492187 5.734375 1.457031 1.210938 1.949219.664063 4.503907-1.234375 5.785157l-85.214843 56.84375 88.21875-50.929688c1.996093-1.15625 4.550781-.515625 5.765624 1.445313 1.214844 1.964844.648438 4.539062-1.277343 5.808594l-78.132813 51.753906 78.941406-45.558594c1.996094-1.070312 4.480469-.390625 5.660157 1.542969 1.175781 1.9375.636719 4.453125-1.230469 5.738281l-26.871094 17.167969 25.316406-14.617188c1.992188-1.15625 4.542969-.523437 5.761719 1.433594 1.21875 1.953125.667969 4.519531-1.246093 5.800781l-85.164063 57.300782 84.363281-48.699219c1.992188-1.152344 4.539063-.519531 5.757813 1.433593 1.21875 1.953126.667969 4.523438-1.246094 5.804688l-84.007813 56.488281 93.652344-54.066406c1.992188-1.179687 4.558594-.554687 5.789063 1.40625s.671875 4.542969-1.257813 5.820313l-94.046875 63.660156 101.929688-58.878906c2.003906-1.242188 4.632812-.625 5.875 1.378906 1.242187 2 .625 4.632812-1.375 5.875l-77.433594 51.300781 71.089844-41.046875c1.996093-1.113281 4.515625-.460938 5.714843 1.484375 1.199219 1.941406.65625 4.488281-1.234374 5.769531l-60.78125 40.109375 48.476562-27.984375c1.992188-1.082031 4.484375-.417968 5.671875 1.511719 1.191406 1.929687.664063 4.453125-1.199219 5.742187l-36.984375 24.296876 30.097657-17.375c1.976562-1.15625 4.515624-.542969 5.746093 1.386718 1.234375 1.929688.722657 4.488282-1.15625 5.796875l-67.371093 47.292969 40.671874-23.464844c1.953126-1.070312 4.394532-.457031 5.613282 1.40625 1.21875 1.859375.804687 4.347656-.953125 5.707032l-47.539063 34.988281 38.613282-22.296875c1.964843-1.113282 4.457031-.496094 5.683593 1.402344 1.222657 1.898437.757813 4.421874-1.070312 5.757812l-19.976563 14.316406.367188-.203125c2.027344-1.058593 4.527344-.335937 5.671875 1.644531 1.144531 1.980469.527343 4.511719-1.402344 5.738282l-75.171875 43.390625c-.644531.375-1.378906.574219-2.125.578125zm0 0" fill="#efc7a4"></path><path d="m153.367188 140.320312c-1.375 0-2.664063-.65625-3.464844-1.769531-1.277344-1.773437-1.007813-4.230469.628906-5.679687l31.285156-27.855469-21.332031 12.324219c-1.839844 1.0625-4.183594.609375-5.492187-1.0625-1.3125-1.671875-1.195313-4.054688.277343-5.585938l21.253907-22.128906-6.714844 3.867188c-1.855469 1.042968-4.195313.558593-5.484375-1.132813-1.289063-1.695313-1.132813-4.082031.363281-5.589844l10.644531-10.53125c-.238281-.257812-.441406-.542969-.605469-.855469-1.179687-2.035156-.488281-4.644531 1.550782-5.828124l14.277344-8.191407c1.855468-1.042969 4.195312-.558593 5.484374 1.136719 1.289063 1.691406 1.132813 4.078125-.363281 5.589844l-1.53125 1.5 4.125-2.371094c1.839844-1.0625 4.179688-.609375 5.488281 1.0625 1.3125 1.667969 1.195313 4.050781-.277343 5.585938l-21.261719 22.140624 31.496094-18.175781c1.890625-1.074219 4.292968-.554687 5.566406 1.210938 1.277344 1.765625 1.015625 4.210937-.601562 5.667969l-31.292969 27.851562 49.453125-28.542969c2.023437-1.058593 4.527344-.332031 5.671875 1.644531 1.144531 1.980469.523437 4.511719-1.40625 5.738282l-85.605469 49.398437c-.648438.378907-1.382812.582031-2.132812.582031zm0 0" fill="#efc7a4"></path><path d="m231.460938 502.839844c-1.789063 0-3.386719-1.113282-4.003907-2.792969-.617187-1.679687-.121093-3.566406 1.242188-4.722656l11.851562-10.097657-15.863281 9.148438c-1.882812 1.144531-4.332031.667969-5.644531-1.105469-1.3125-1.769531-1.058594-4.25.585937-5.722656l25.460938-23.890625-15.113282 8.730469c-1.894531 1.09375-4.3125.578125-5.597656-1.199219-1.28125-1.777344-1.007812-4.234375.632813-5.6875l12.800781-11.375-3.996094 2.300781c-1.839844 1.066407-4.1875.609375-5.496094-1.070312-1.308593-1.679688-1.179687-4.0625.300782-5.59375l15.359375-15.851563-5.527344 3.179688c-1.847656 1.054687-4.1875.585937-5.488281-1.09375-1.300782-1.679688-1.167969-4.0625.316406-5.585938l7.527344-7.679687c-1.386719.308593-2.835938-.089844-3.867188-1.066407-1.367187-1.304687-1.714844-3.355468-.855468-5.035156l3.464843-6.828125c-.210937-.234375-.402343-.492187-.5625-.765625-.566406-.980468-.722656-2.148437-.429687-3.242187.292968-1.097657 1.011718-2.03125 1.992187-2.597657l4.429688-2.558593c1.640625-.984375 3.734375-.757813 5.125.558593 1.386719 1.3125 1.734375 3.386719.847656 5.082032l-.71875 1.40625 13.050781-7.523438c1.84375-1.066406 4.195313-.605468 5.503906 1.082032 1.304688 1.683593 1.167969 4.074218-.324218 5.597656l-6.992188 7.109375 4.761719-2.75c1.84375-1.0625 4.1875-.605469 5.496094 1.070312 1.308593 1.671875 1.1875 4.058594-.289063 5.585938l-15.359375 15.875 13.738281-7.929688c1.894532-1.078125 4.292969-.554687 5.570313 1.210938 1.273437 1.765625 1.015625 4.210937-.605469 5.667969l-12.796875 11.382812 10.777344-6.210938c1.882813-1.148437 4.328125-.667968 5.644531 1.105469 1.3125 1.769531 1.058594 4.25-.585937 5.71875l-25.464844 23.894531 24.382813-14.097656c1.910156-1.105468 4.351562-.570312 5.625 1.234375 1.273437 1.804688.957031 4.285157-.726563 5.710938l-11.890625 10.113281 9.78125-5.632812c1.808594-1.046876 4.109375-.632813 5.4375.980468 1.328125 1.613282 1.289062 3.953125-.085938 5.523438l-8.3125 9.53125 6.042969-3.480469c1.546875-.890625 3.484375-.726563 4.859375.417969 1.371094 1.140625 1.886719 3.015625 1.292969 4.699218l-2.015625 5.675782c2.035156-.355469 4.035156.800781 4.742188 2.742187.707031 1.945313-.078126 4.113281-1.867188 5.152344l-8.53125 4.921875c-1.546875.886719-3.484375.71875-4.851562-.421875-1.371094-1.144531-1.886719-3.015625-1.292969-4.695313l1.875-5.316406-18.234375 10.527344c-1.808594 1.050781-4.109375.636719-5.4375-.976562-1.328125-1.613282-1.289063-3.953126.085937-5.523438l8.320313-9.523438-27.960938 16.144532c-.652344.371094-1.386718.566406-2.136718.5625zm0 0" fill="#d94452"></path><path d="m473.460938 366.390625c-28.828126-14.242187-70.382813-16.390625-102.035157-23.566406-5.683593-14.710938-18.800781-25.261719-34.386719-27.664063-.246093-13.273437-1.851562-26.484375-4.796874-39.425781 0-.136719-.15625-.203125-.195313-.316406 15.734375-16.5625 15.570313-38.867188 27.058594-52.90625 2.753906-3.414063 9.386719-4.675781 12.800781-8.464844 8.53125-9.589844 11.5625-33.824219 14.019531-45.523437 4.726563-22.554688-4.394531-32.429688-22.9375-30.183594 12.109375-25.59375 14.425781-54.734375 6.519531-81.921875-18.84375-53.878907-88.722656-59.535157-136.832031-54.84375-41.148437 4.019531-85.460937 20.675781-96.019531 65.058593-3.890625 16.394532-4.921875 51.976563 5.308594 70.527344-3.976563.707032-7.789063 2.128906-11.253906 4.199219-13.867188 9.617187-9.730469 21.785156-5.386719 35.96875 3.199219 10.460937 5.90625 33.511719 13.652343 41.8125 1.90625 2.03125 5.882813 2.289063 7.316407 4.148437 7.671875 0 10.691406 3.414063 9.050781 10.238282l1.28125 9.644531c6.484375 16.835937 9.675781 25.964844 20.257812 35.457031-2.597656 12.078125-4.21875 24.351563-4.847656 36.691406-15.316406 3.074219-28.074218 13.625-33.96875 28.09375-.09375.144532-.144531.289063-.222656.433594-.039062.097656-.085938.191406-.136719.28125 0 .085938 0 .222656-.050781.324219-16.546875 3.636719-33.578125 6.734375-50.449219 10.308594-2.777343-.660157-5.707031-.035157-7.96875 1.707031-12.078125 2.625-24.003906 5.878906-35.738281 9.753906-28.734375 9.726563-32.042969 42.972656-36.941406 70.210938-5.214844 28.972656-17.5625 61.945312 16.144531 64.554687 19.9375 1.140625 39.921875 1.265625 59.871094.375h.546875c7.839844-.195312 15.664062-.367187 23.40625-.367187h82.363281c.398437.375.757813.792968 1.167969 1.160156 2.960937 1.761719 6.738281 1.285156 9.164062-1.160156h15.796875c2.230469.839844 4.691407.839844 6.921875 0h61.746094c1.070312.195312 2.167969.195312 3.242188 0h23.191406c1.175781.164062 2.367187.164062 3.542968 0h156.785157c9.28125 0 26.058593 2.382812 33.773437-4.898438 14.113282-13.300781-1.109375-62.410156-5.027344-78.984375-4.335937-18.269531-7.730468-41.820312-25.734374-50.722656zm-162.203126 129.769531h-16.597656l-21.757812-90.558594c6.824218-2.039062 13.253906-5.210937 19.027344-9.386718 1.570312 3.644531 3.796874 6.96875 6.570312 9.804687 7.261719 5.976563 13.117188 2.066407 19.148438-3.191406 14.632812-13.511719 28.425781-27.898437 41.3125-43.082031-1.835938 47.625-13.101563 103.464844-47.703126 136.414062zm-111.675781-1.160156c-34.988281-31.746094-46.882812-86.28125-49.21875-133.734375 12.523438 14.660156 25.878907 28.597656 39.996094 41.734375 5.117187 4.53125 9.386719 8.457031 16.542969 4.789062 3.910156-2.71875 6.890625-6.574218 8.535156-11.042968 6.320312 4.671875 13.511719 8.027344 21.152344 9.863281-7.167969 29.863281-14.339844 59.726563-21.519532 89.601563h-14.675781c-.199219-.449219-.472656-.859376-.8125-1.210938zm36.027344-137.933594c-18.773437-3.414062-46.703125-15.488281-51.148437-37.453125-.988282-11.0625.023437-22.210937 2.988281-32.914062 22.527343 15.003906 42.496093 38.035156 71.679687 34.03125 22.835938-3.132813 43.519532-21.835938 61.652344-35.839844 3.273438 11.90625 4.652344 24.253906 4.085938 36.589844-4.488282 25.984375-34.472657 35.441406-60.925782 36.96875-1.972656-.402344-3.96875-.6875-5.972656-.855469-.9375-.332031-1.9375-.453125-2.929688-.359375-2.6875.222656-5.355468.632813-7.984374 1.230469-3.839844-.253906-7.660157-.71875-11.445313-1.398438zm18.296875 9.839844c13.730469 1.785156 25.972656 9.546875 33.449219 21.203125.1875.246094.367187.554687.554687.855469-19.246094 16.632812-47.988281 15.894531-66.355468-1.707032 7.160156-11.320312 19.046874-18.796874 32.351562-20.351562zm-5.871094 41.488281c4.113282.277344 8.242188.191407 12.339844-.257812 7.046875 29.339843 14.097656 58.679687 21.152344 88.023437h-54.613282zm101.238282-76.621093c4.085937 3.40625 7.550781 7.5 10.242187 12.089843-.09375.855469-3.492187 3.414063-3.867187 4.070313-8.097657 13.304687-23.894532 25.15625-34.609376 36.464844-3.933593 4.992187-8.316406 9.609374-13.09375 13.796874-.628906.445313-1.097656.8125-1.449218 1.109376-.03125-.117188-.097656-.222657-.1875-.304688-1.203125-4.363281-2.859375-8.589844-4.933594-12.613281-6.152344-9.714844-14.640625-17.734375-24.695312-23.320313 22.539062-3.894531 46.019531-13.835937 56.730468-34.535156.570313-1.203125 1.058594-2.445312 1.460938-3.714844 5.242187 1.265625 10.152344 3.636719 14.402344 6.957032zm-70.648438-323.441407c60.972656 8.082031 93.332031 54.871094 80.386719 108.511719-4.335938-19.542969-11.949219-40.371094-25.941407-51.25-4.988281-5.304688-12.425781-7.550781-19.515624-5.890625-6.316407 1.808594-7.679688 7.375-12.714844 10.601563-19.671875 12.15625-43.417969 15.851562-65.851563 10.238281-24.074219-5.460938-35.839843-32.675781-58.882812-13.714844-14.199219 11.691406-21.828125 32.632813-26.1875 52.480469-2-10.507813-3.058594-21.175782-3.164063-31.871094-.914062-70.527344 72.71875-86.9375 131.871094-79.105469zm-111.503906 212.277344c-.210938-.410156-.625-.675781-1.082032-.691406-25.449218-3.585938-16.964843-12.058594-21.164062-27.664063-1.578125-6.371094-3.996094-12.503906-7.195312-18.238281-7.960938-11.648437-5.089844-21.804687 8.621093-30.460937 1.707031 4.09375 11.640625 2.328124 12.296875-2.785157 2.457032-19.0625 11.273438-72.292969 37.203125-67.242187 6.214844 1.214844 15.710938 11.144531 22.972657 13.75 13.414062 4.234375 27.523437 5.808594 41.539062 4.632812 11.292969-.269531 22.453125-2.5 32.984375-6.589844 3.882813-1.636718 17.414063-13.34375 20.476563-13.5 25.105468-1.304687 33.777343 48.34375 36.566406 69.003907-.203125.425781-.339844.851562-.554688 1.261719-.382812.765624.144532 1.253906 1.144532 1.5 1.417968 3.765624 8.53125 2.648437 11.09375-.902344 23.398437 2.175781 3.957031 75.050781-12.585938 77.394531-1.554688.222656-7.296875 1.46875-7.355469 3.84375-.855469 33.183594-14.507812 46.230469-39.640625 65.808594-19.464844 15.144531-49.609375 27.773437-71.953125 16.210937-14.488281-8.832031-28.191406-18.890625-40.957031-30.070312-17.28125-14.523438-21.855469-33.519532-22.410156-55.261719zm-15.292969 119.875c1.375-8.175781 12.800781-14.011719 21.503906-15.742187.644531 2.398437 1.566407 4.714843 2.75 6.902343 11.144531 20.257813 33.535157 29.335938 56.257813 32.359375-12.425782 7.664063-22.550782 18.546875-29.292969 31.496094-.851563 1.835938-1.015625 2.824219-.8125 3.414062-3.566406-3.460937-6.839844-7.210937-9.785156-11.214843l-35.585938-37.546875c-5.367187-5.628906-5.820312-5.007813-5.035156-9.667969zm-71.523437 153.761719c-14.28125-3.449219-24.296876-16.292969-24.160157-30.984375-.519531-14.601563 10.238281-27.164063 24.746094-28.894531 1.144531.246093 2.324219.261718 3.472656.054687 2.003907.152344 3.980469.527344 5.898438 1.125 12.742187 4.484375 21.328125 16.453125 21.488281 29.960937-1.023438 16.46875-13.058594 32.453126-31.445312 28.738282zm-59.019532 1.914062c-23.890625-13.03125.214844-114.996094 26.820313-127.277344 9.507812-4.167968 19.402343-7.382812 29.542969-9.589843v68.855469c-19.316407 1.847656-34.066407 18.066406-34.082032 37.46875-.671875 12.6875 5.976563 24.644531 17.109375 30.761718-11.699219.898438-31.53125 4.054688-39.390625-.21875zm137.832032 0h-56.457032c12.621094-6 20.902344-18.46875 21.539063-32.429687 0-.195313-.113281-.3125-.136719-.492188-.027344-.179687.121094-.292969.109375-.453125-.492187-18.765625-15.304687-34.007812-34.046875-35.039062v-69.589844c-.019531-.511719-.160156-1.015625-.410156-1.464844 16.121094-3.148437 32.625-5.488281 47.695312-8.535156.585938 50.550781 10.65625 110.34375 46.597656 148.027344zm309.476562 0h-146.40625c37.257812-36.371094 48.285156-95.386718 49.367188-146.289062l47.488281 10.957031v40.960937c-15.542969 2.496094-28.304688 13.625-32.898438 28.679688-3.136719 11.792969-5.355469 34.484375 9.746094 37.546875 4.269531.855469 14.59375-5.699219 7.460937-7.132813-8.628906-1.707031-6.351562-16.742187-6.0625-22.734374.804688-16.546876 13.253907-32.914063 31.523438-29.070313 13.65625 3.371094 23.503906 15.28125 24.253906 29.328125.324219 3.683594 2.414063 21.527344-3.160156 22.65625-7.628906 1.535156-5.699219 8.300781 1.828125 6.773438 15.941406-3.214844 14.453125-17.414063 13.796875-30.640626-.800781-18.808593-15.386719-34.125-34.132812-35.839843v-37.675781l14.234374 3.285156c39.746094 9.171875 42.878907 52.378906 47.402344 88.558594 5.265625 42.085937 10.101563 40.636718-24.441406 40.636718zm0 0" fill="#262626"></path></svg>