<!-- icon666.com - MILLIONS OF FREE VECTOR ICONS --><svg viewBox="0 -3 510.54653 510" xmlns="http://www.w3.org/2000/svg"><path d="m99.242188 361.503906c-1.914063.003906-3.601563-1.265625-4.121094-3.109375-.523438-1.84375.25-3.804687 1.886718-4.804687l40.832032-25.019532-40.109375 23.167969c-2.023438 1.207031-4.640625.546875-5.847657-1.480469-1.207031-2.023437-.542968-4.640624 1.480469-5.847656l76.253907-47.105468-68.335938 39.449218c-2.015625 1.164063-4.589844.496094-5.789062-1.496094-1.199219-1.996093-.578126-4.582031 1.394531-5.816406l120.320312-75.5625-112.332031 64.855469c-2 1.042969-4.464844.347656-5.628906-1.582031-1.164063-1.933594-.625-4.4375 1.234375-5.714844l6.101562-3.710938c-2.046875.960938-4.488281.164063-5.566406-1.824218-1.082031-1.984375-.425781-4.46875 1.496094-5.660156l68.042969-42.121094-62.25 35.933594c-2.015626 1.226562-4.640626.585937-5.867188-1.429688s-.585938-4.640625 1.429688-5.867188l137.582031-87.859374-132.394531 76.441406c-1.308594.78125-2.9375.800781-4.265626.054687-1.332031-.746093-2.164062-2.144531-2.183593-3.667969-.015625-1.527343.777343-2.945312 2.089843-3.722656l10.992188-6.726562-6.828125 3.953125c-2.003906 1.101562-4.523437.425781-5.707031-1.53125-1.183594-1.960938-.613282-4.503907 1.296875-5.765625l116.957031-74.242188-114.5 66.109375c-1.996094 1.082031-4.492188.414063-5.675781-1.523437-1.1875-1.9375-.644531-4.464844 1.230469-5.746094l136.683593-88.109375-135.933593 78.507813c-1.300782.792968-2.929688.835937-4.269532.105468-1.335937-.730468-2.183594-2.121094-2.222656-3.644531-.035156-1.523437.742188-2.953125 2.046875-3.746094l124.703125-80.070312-123.636719 71.3125c-2.003906 1.140625-4.550781.484375-5.753906-1.484375-1.199219-1.964844-.621094-4.53125 1.308594-5.792969l126.914062-82.140625-125.285156 72.335938c-2.007813 1.070312-4.503906.378906-5.671875-1.574219-1.167969-1.949219-.597656-4.476563 1.292969-5.738281l31.574219-19.578126-27.988282 16.15625c-2.011718 1.125-4.550781.453126-5.742187-1.519531-1.1875-1.972656-.597657-4.535156 1.335937-5.785156l59.050782-37.085937-55.574219 32.074218c-2.027344 1.207032-4.644531.546875-5.851563-1.480468-1.207031-2.023438-.542968-4.640626 1.480469-5.847657l3.710937-2.289062c-2.054687.683593-4.292968-.285157-5.207031-2.246094-.914062-1.960937-.214843-4.292969 1.625-5.433594l28.613281-17.917969-23.707031 13.738282c-2.007812 1.085937-4.511719.402344-5.6875-1.550782-1.175781-1.957031-.605469-4.492187 1.292969-5.753906l26.453125-16.605468-20.640625 11.945312c-2.007812 1.101562-4.523438.429688-5.707031-1.53125-1.1875-1.957031-.613281-4.5 1.292969-5.765625l27.988281-17.714844-21.910157 12.65625c-2.003906 1.242188-4.636718.625-5.878906-1.378906-1.238281-2.003906-.621094-4.632813 1.378906-5.875l67.816407-44.953125-58.882813 33.996094c-1.992187 1.132812-4.523437.492187-5.734375-1.457032-1.207031-1.949218-.660156-4.503906 1.238281-5.785156l46.472657-31.046875-35.839844 20.644531c-1.957031 1.121094-4.453125.523438-5.6875-1.367187-1.238281-1.886719-.789063-4.414063 1.019531-5.761719l53.761719-39.609375-35.535156 20.480469c-1.941407 1.132812-4.429688.558594-5.6875-1.304688-1.253907-1.867187-.84375-4.386718.9375-5.761718l23.976562-18.59375c-1.453125-.660156-2.417969-2.078125-2.496093-3.675782-.082032-1.59375.738281-3.101562 2.121093-3.902343l39.945313-23.039063c1.941406-1.132812 4.433594-.5625 5.6875 1.304688 1.253906 1.867187.847656 4.386718-.933594 5.761718l-13.65625 10.570313 47.589844-27.441406c1.960937-1.125 4.453125-.523438 5.691406 1.363281s.789062 4.414062-1.023438 5.761719l-53.757812 39.636719 84.035156-48.527344c1.996094-1.1875 4.578125-.558594 5.804688 1.414062 1.226562 1.972656.648437 4.5625-1.296875 5.828125l-46.390625 30.910157 63.78125-36.804688c1.996094-1.160156 4.550781-.519531 5.765625 1.445312 1.214843 1.960938.648437 4.535157-1.277344 5.808594l-67.867187 44.984375 84.644531-48.859375c2.007812-1.148437 4.566406-.488281 5.765625 1.492188 1.199218 1.980468.601562 4.554687-1.347656 5.804687l-28.023438 17.722657 37.90625-21.871094c2.003906-1.085938 4.511719-.402344 5.6875 1.550781 1.175781 1.957031.605469 4.488281-1.292969 5.753906l-26.285156 16.511719 33.625-19.40625c2-1.054688 4.480469-.363281 5.648437 1.578125 1.164063 1.941406.609376 4.457031-1.265624 5.726563l-28.753907 17.988281 35.898438-20.683594c2.015625-1.136719 4.570312-.457031 5.753906 1.527344 1.1875 1.984375.578125 4.554687-1.375 5.792969l-1.1875.726562 5.308594-3.054688c2.007812-1.125 4.550781-.453124 5.738281 1.519532s.597656 4.53125-1.335938 5.785156l-58.941406 36.992188 65.402344-37.761719c2.019531-1.210938 4.640625-.554688 5.851562 1.46875 1.210938 2.023437.554688 4.640625-1.46875 5.855469l-31.527343 19.546874 34.984375-20.1875c2.003906-1.140624 4.550781-.484374 5.753906 1.484376 1.199219 1.964843.621094 4.53125-1.308594 5.792968l-126.90625 82.117188 134.476563-77.652344c1.300781-.796875 2.929687-.835938 4.265625-.105469 1.339844.730469 2.1875 2.121094 2.222656 3.644531.039062 1.523438-.742188 2.953126-2.042969 3.746094l-124.757812 80.113282 130.117187-75.09375c1.996094-1.085938 4.492188-.414063 5.675782 1.523437 1.183593 1.9375.644531 4.464844-1.230469 5.746094l-136.679688 88.105469 140.546875-81.125c2-1.085938 4.5-.40625 5.679688 1.539062 1.179687 1.945312.625 4.472656-1.261719 5.746094l-116.949219 74.234375 118.539063-68.4375c2.015625-1.117188 4.550781-.429688 5.730469 1.550781 1.175781 1.980469.570312 4.539062-1.371094 5.777344l-10.761719 6.589844 9.636719-5.566407c2.011718-1.222656 4.640625-.582031 5.863281 1.429688 1.226563 2.015625.585937 4.644531-1.425781 5.867187l-137.703125 87.902344 137.785156-79.574219c2.015625-1.132812 4.570313-.457031 5.757813 1.527344 1.1875 1.988281.574218 4.558594-1.378907 5.796875l-68.011719 42.09375 66.347657-38.296875c2.023437-1.152344 4.59375-.472656 5.78125 1.53125 1.1875 2 .550781 4.585937-1.429688 5.804687l-5.332031 3.246094 2.320312-1.332031c2.019532-1.214844 4.640626-.566406 5.859376 1.453125 1.214843 2.019531.5625 4.644531-1.457032 5.859375l-120.40625 75.621094 117.925782-68.078125c2.023437-1.207032 4.640624-.542969 5.847656 1.480468 1.207031 2.023438.542968 4.644532-1.480469 5.851563l-76.3125 47.136719 72.53125-41.863282c2.023437-1.171874 4.609375-.496093 5.804687 1.507813 1.195313 2.007813.554688 4.601563-1.433593 5.820313l-40.796875 25.027343 36.519531-21.085937c2.011719-1.125 4.550781-.453125 5.742187 1.519531 1.1875 1.972656.597657 4.535156-1.335937 5.785156l-100.695313 63.351563 95.09375-54.902344c2.007813-1.121094 4.539063-.453125 5.730469 1.507812 1.191407 1.964844.617188 4.515626-1.300781 5.78125l-98.132812 62.53125 91.742187-52.957031c1.988281-1.070312 4.464844-.410156 5.652344 1.511719 1.1875 1.917969.671875 4.433594-1.171875 5.730469l-109.226563 72.183593 100.164063-57.820312c1.996094-1.097656 4.5-.4375 5.691406 1.503906 1.195312 1.9375.652344 4.472656-1.230469 5.757813l-67.992187 44.449219 59.734375-34.480469c1.996093-1.1875 4.574219-.558594 5.800781 1.414062 1.226562 1.972657.652344 4.5625-1.296875 5.828125l-57.648437 38.46875 51.121093-29.507812c1.984375-1.058594 4.449219-.394532 5.636719 1.515625 1.183594 1.910156.683594 4.414062-1.148438 5.71875l-30.566406 20.328125 25.855469-14.925782c1.953125-1.101562 4.425781-.503906 5.660156 1.367188 1.234375 1.875.808594 4.382812-.972656 5.742188l-52.3125 39.015624 48.691406-28.109374c1.976563-1.105469 4.472657-.472657 5.683594 1.4375 1.214844 1.910156.722656 4.4375-1.117187 5.753906l-9.574219 6.664062 6.066406-3.496094c1.933594-1.101562 4.390625-.535156 5.640625 1.304688 1.253906 1.839844.882812 4.332031-.851562 5.726562l-23.332032 18.609376 20.984375-12.125c1.898438-1.082032 4.308594-.558594 5.582031 1.21875 1.273438 1.773437 1 4.226562-.632812 5.675781l-13.882812 12.28125 11.339843-6.546875c1.710938-.988282 3.875-.671875 5.230469.761718 1.359375 1.433594 1.558594 3.609376.480469 5.261719l-8.46875 12.972657 6.207031-3.574219c1.335938-.808594 3.011719-.808594 4.351562 0 1.332032.8125 2.113282 2.289062 2.039063 3.847656l-.300781 6.050781c1.726562.375 3.039062 1.769532 3.3125 3.515625.269531 1.742188-.5625 3.472657-2.089844 4.351563l-3.652344 2.097656c-1.351562.773438-3.015625.75-4.347656-.058594-1.328125-.8125-2.109375-2.285156-2.035156-3.839844l.203125-4.695312-14.914063 8.613281c-1.710937.988281-3.875.671875-5.234375-.761719-1.355469-1.433593-1.554687-3.609374-.476562-5.265624l8.464843-12.96875-32.945312 19.027343c-1.898438 1.101563-4.324219.582031-5.605469-1.199219s-1-4.246093.648438-5.695312l13.890625-12.246094-33.1875 19.160156c-1.929688 1.074219-4.359375.5-5.605469-1.324218-1.242187-1.824219-.886719-4.296875.820313-5.699219l23.347656-18.628906-44.496094 25.675781c-1.96875 1.070312-4.429688.429688-5.632812-1.460938-1.203126-1.894531-.734376-4.390624 1.070312-5.722656l9.523438-6.640625-23.9375 13.808594c-1.953126 1.101563-4.425782.503906-5.660157-1.367187-1.234375-1.875-.808593-4.382813.976563-5.742188l52.300781-39.003906-79.933594 46.148437c-1.984375 1.082031-4.472656.429688-5.667969-1.492187-1.195312-1.925782-.679687-4.445313 1.171876-5.746094l30.652343-20.386719-47.882812 27.640625c-1.988281 1.113282-4.5.46875-5.707031-1.464844-1.203126-1.9375-.675782-4.476562 1.203124-5.769531l57.601563-38.445312-79.191406 45.714843c-1.996094 1.097657-4.5.4375-5.691407-1.503906-1.195312-1.941406-.652343-4.476562 1.230469-5.757812l67.949219-44.433594-89.589844 51.71875c-1.996094 1.117188-4.515625.464844-5.714844-1.480469-1.199218-1.945312-.65625-4.488281 1.234376-5.773437l109.292968-72.199219-137.667968 79.488281c-2.015626 1.222656-4.636719.582032-5.863282-1.433594-1.222656-2.015624-.578125-4.640624 1.433594-5.863281l98.136719-62.546875-121.011719 69.894532c-1.304688.789062-2.933594.820312-4.265625.085937-1.335937-.738281-2.175781-2.128906-2.207031-3.652344-.03125-1.523437.753906-2.949219 2.058594-3.738281l100.695312-63.351562-122.4375 70.65625c-.648438.378906-1.382812.574218-2.132812.574218zm0 0" fill="#7f6350"></path><path d="m18.464844 503.191406c-1.90625-.003906-3.578125-1.269531-4.101563-3.101562-.519531-1.832032.238281-3.789063 1.859375-4.792969l33.652344-20.875-39.492188 22.777344c-2.003906 1.121093-4.535156.453125-5.726562-1.507813-1.191406-1.960937-.617188-4.515625 1.300781-5.78125l88.539063-56.738281-84.09375 48.546875c-2.011719 1.148438-4.566406.488281-5.765625-1.492188-1.199219-1.980468-.601563-4.554687 1.34375-5.804687l50.925781-32.339844-45.644531 26.367188c-1.992188 1.132812-4.523438.492187-5.734375-1.457031-1.207032-1.949219-.660156-4.503907 1.238281-5.785157l76.730469-50.84375-69.972656 40.390625c-1.980469 1.132813-4.507813.503906-5.726563-1.429687-1.21875-1.933594-.699219-4.480469 1.179687-5.78125l66.5-45.644531-58.617187 33.859374c-1.972656 1.136719-4.492187.523438-5.722656-1.394531s-.734375-4.464843 1.125-5.78125l35.78125-25.40625-26.386719 15.199219c-1.871094 1.144531-4.308594.683594-5.628906-1.066406-1.324219-1.753906-1.105469-4.222656.507812-5.710938l23.851563-22.773437c-2.070313.570312-4.242188-.484375-5.070313-2.464844s-.054687-4.269531 1.804688-5.34375l29.378906-16.9375c1.871094-1.148437 4.308594-.683594 5.628906 1.066406 1.324219 1.75 1.105469 4.21875-.507812 5.707031l-23.449219 22.351563 74.441406-42.984375c1.976563-1.136719 4.496094-.523438 5.726563 1.394531 1.226562 1.917969.734375 4.464844-1.125 5.78125l-35.773438 25.457031 74.113282-42.789062c1.984374-1.132812 4.507812-.503906 5.726562 1.429688 1.21875 1.933593.699219 4.480468-1.179688 5.78125l-66.464843 45.605468 95.753906-55.253906c1.992187-1.148438 4.535156-.511719 5.75 1.441406 1.214844 1.957032.65625 4.527344-1.261719 5.800782l-76.691406 50.78125 100.566406-58.023438c2-1.058594 4.472656-.371094 5.644532 1.5625 1.167968 1.933594.628906 4.441406-1.234376 5.722656l-50.925781 32.351563 68.660157-39.636719c2-1.101562 4.511718-.433594 5.699218 1.515625s.632813 4.488281-1.261718 5.761719l-88.523438 56.722656 110.871094-64c2.011718-1.109375 4.539062-.425781 5.71875 1.542969 1.179687 1.96875.589844 4.515625-1.332032 5.769531l-33.800781 20.984375 49.023438-28.296875c1.992187-1.070312 4.472656-.398438 5.65625 1.527344 1.179687 1.925781.65625 4.441406-1.199219 5.734375l-113.425781 73.726562 140.339843-80.988281c1.992188-1.070312 4.472657-.398438 5.652344 1.527344 1.183594 1.925781.65625 4.441406-1.199218 5.734375l-113.28125 73.597656 131.5-75.894531c1.992187-1.082032 4.480468-.421875 5.671874 1.507812 1.1875 1.929688.660157 4.453125-1.199218 5.746094l-113.785156 74.699219 132.453124-76.472657c2.003907-1.167968 4.570313-.519531 5.78125 1.453126 1.214844 1.976562.628907 4.558593-1.316406 5.816406l-101.890625 66.558594 119.023438-68.71875c2.011719-1.125 4.550781-.453126 5.742187 1.519531 1.1875 1.972656.597656 4.535156-1.335937 5.785156l-32.429688 20.292969 42.046875-24.269532c1.996094-1.136718 4.535156-.484374 5.738282 1.472657 1.207031 1.957031.644531 4.515625-1.269532 5.789062l-93.242187 61.234375 109.984375-63.488281c2.011718-1.175781 4.589844-.523437 5.800781 1.464844s.605469 4.578125-1.363281 5.824219l-56.933594 36.402343 67.261719-38.824219c1.984375-1.070312 4.464843-.410156 5.648437 1.511719 1.1875 1.917969.675782 4.429688-1.171875 5.730469l-83.199219 55 93.664063-54.078125c1.992187-1.097656 4.5-.4375 5.691406 1.503906 1.191407 1.941407.652344 4.476563-1.230469 5.757813l-54.707031 35.507812 59.886719-34.570312c1.984375-1.132813 4.507812-.503906 5.726562 1.429687 1.21875 1.933594.699219 4.480469-1.175781 5.78125l-77.714843 53.121094 83.234374-48.058594c2.007813-1.179687 4.589844-.527343 5.800782 1.460938 1.210937 1.988281.605468 4.582031-1.363282 5.824219l-7.03125 4.5 7.40625-4.269532c1.976563-1.117187 4.480469-.496094 5.703126 1.417969 1.21875 1.914063.726562 4.449219-1.121094 5.769531l-59.195313 41.597656 59.851563-34.550781c1.964844-1.117187 4.457031-.507812 5.6875 1.382813 1.230468 1.894531.773437 4.417968-1.042969 5.761718l-47.488281 34.480469 46.242187-26.699219c1.929688-1.109374 4.386719-.550781 5.644531 1.285157 1.261719 1.832031.898438 4.328125-.832031 5.730469l-40.808593 32.808593 38.871093-22.433593c1.878907-1.046876 4.246094-.53125 5.515625 1.203124 1.273438 1.734376 1.054688 4.144532-.507812 5.625l-25.847656 23.558594 22.957031-13.25c1.765625-1.015625 4-.640625 5.339843.890625 1.339844 1.535157 1.40625 3.800781.164063 5.414063l-12.261719 15.796875 7.898438-4.558594c1.324218-.839844 3-.890625 4.371094-.125 1.367187.761719 2.207031 2.214844 2.1875 3.785156-.023438 1.566407-.902344 2.996094-2.289063 3.722657l-26.789063 15.433593c-1.761718 1.007813-3.992187.628907-5.328124-.902343-1.332032-1.53125-1.402344-3.792969-.164063-5.402344l12.242187-15.769532-38.226562 22.074219c-1.878906 1.050781-4.246094.535157-5.519531-1.203125-1.273438-1.734375-1.054688-4.144531.507812-5.621094l25.859375-23.570312-52.6875 30.394531c-1.925781 1.09375-4.367187.527344-5.621094-1.300781-1.25-1.828125-.894531-4.308594.816407-5.710938l40.78125-32.792968-68.972657 39.804687c-1.964843 1.117188-4.457031.511719-5.6875-1.382812-1.230468-1.894531-.773437-4.417969 1.042969-5.757813l47.507813-34.492187-72.125 41.632812c-1.96875 1.082031-4.441406.453125-5.652344-1.441406-1.207031-1.894531-.742188-4.402344 1.070312-5.734375l59.1875-41.589844-84.480468 48.765625c-2 1.101563-4.511719.433594-5.699219-1.515625-1.1875-1.949218-.632813-4.488281 1.261719-5.761718l6.9375-4.445313-20.328125 11.722656c-1.980469 1.136719-4.507813.503907-5.726563-1.425781-1.21875-1.933594-.699218-4.480469 1.179688-5.785156l77.738281-53.117188-104.53125 60.328125c-1.996094 1.101563-4.503906.4375-5.695313-1.5-1.191406-1.941406-.652343-4.476562 1.230469-5.761719l54.613281-35.464843-73.984374 42.726562c-1.988282 1.101563-4.492188.445313-5.6875-1.488281-1.199219-1.929688-.671876-4.460938 1.199218-5.753906l83.25-55.03125-107.867187 62.273437c-2 1.101563-4.511719.433594-5.699219-1.515625-1.1875-1.949218-.632812-4.488281 1.261719-5.761718l56.898437-36.394532-75.648437 43.671875c-1.992188 1.117188-4.511719.464844-5.710938-1.480469-1.203125-1.941406-.65625-4.488281 1.230469-5.769531l93.238281-61.203125-118.625 68.453125c-2.007812 1.128907-4.546875.453125-5.738281-1.519531-1.1875-1.972656-.597656-4.53125 1.335938-5.785156l32.425781-20.300782-47.785157 27.605469c-1.996093 1.136719-4.535156.488281-5.742187-1.46875-1.203125-1.957031-.644531-4.519531 1.269531-5.792969l101.855469-66.558593-127.90625 73.820312c-1.992187 1.085938-4.480469.421875-5.671875-1.507812-1.1875-1.929688-.660156-4.453125 1.199219-5.742188l113.878906-74.667969-142.011719 81.917969c-1.992187 1.070313-4.472656.402344-5.65625-1.527343-1.179687-1.925782-.65625-4.441407 1.203125-5.734376l113.226563-73.605468-140.089844 80.867187c-1.992188 1.070313-4.472656.402344-5.65625-1.527343-1.183594-1.925782-.65625-4.441407 1.199219-5.734376l113.425781-73.753906-140.339844 81.015625c-.644531.386719-1.378906.597657-2.132812.609375zm0 0" fill="#cad0d7"></path><path d="m253.371094 500.074219c-1.527344 0-2.941406-.816407-3.699219-2.140625-.761719-1.324219-.757813-2.957032.011719-4.277344l5.972656-10.238281-6.082031 3.507812c-1.800781 1.015625-4.066407.597657-5.386719-.992187-1.316406-1.589844-1.308594-3.898438.027344-5.476563l15.933594-18.519531-17.597657 10.148438c-1.902343 1.074218-4.304687.539062-5.574219-1.238282-1.265624-1.78125-.984374-4.226562.652344-5.675781l14.386719-12.441406-14.636719 8.449219c-1.914062 1.132812-4.378906.605468-5.660156-1.214844-1.28125-1.820313-.949219-4.316406.761719-5.738282l28.902343-24.5-30.597656 17.65625c-1.929687 1.109376-4.390625.550782-5.648437-1.285156-1.261719-1.835937-.898438-4.332031.832031-5.730468l41.703125-33.679688-44.109375 25.460938c-1.960938 1.117187-4.453125.511718-5.683594-1.382813-1.234375-1.894531-.773437-4.417969 1.042969-5.757813l35.753906-25.96875-36.691406 21.1875c-1.976563 1.121094-4.484375.5-5.703125-1.414062-1.222656-1.914062-.730469-4.449219 1.121094-5.769531l32.980468-23.097657-33.597656 19.394532c-1.949218 1.136718-4.445312.554687-5.695312-1.324219s-.820313-4.40625.976562-5.765625l36.257813-27.5625-37.65625 21.734375c-1.917969 1.085937-4.351563.53125-5.609375-1.277344-1.257813-1.8125-.929688-4.285156.761718-5.703125l27.769532-22.9375-29.132813 16.808594c-1.84375 1.050781-4.179687.589844-5.480469-1.085938-1.304687-1.671874-1.179687-4.050781.292969-5.578124l19.734375-20.324219-21.460937 12.371093c-1.796875 1.039063-4.082031.632813-5.414063-.960937-1.328125-1.597656-1.316406-3.917969.03125-5.5l7.578125-8.882813-7.433593 4.269532c-1.179688.679687-2.613282.757812-3.859376.210937-1.246093-.550781-2.15625-1.664062-2.445312-2.996093l-2.476562-11.363282c-1.640626.144532-3.210938-.6875-4.011719-2.125-1.179688-2.039062-.484375-4.648437 1.554687-5.828125l3.371094-1.894531c1.175781-.679688 2.609375-.757812 3.851562-.207031 1.246094.550781 2.152344 1.660156 2.445313 2.988281l2.371094 10.9375 23.757812-13.71875c1.796875-1.019531 4.0625-.609375 5.382813.976562 1.320312 1.585938 1.320312 3.890626-.007813 5.472657l-7.535156 8.910156 26.574219-15.359375c1.84375-1.050781 4.175781-.589844 5.480468 1.085938 1.300782 1.671874 1.179688 4.046874-.292968 5.578124l-19.71875 20.324219 46.746094-26.988281c1.917968-1.109375 4.367187-.5625 5.632812 1.257812 1.265625 1.820313.925781 4.304688-.777344 5.722657l-27.769531 22.886719 51.832031-29.867188c1.949219-1.136719 4.445313-.554688 5.699219 1.324219 1.25 1.878906.820313 4.40625-.980469 5.765625l-36.257812 27.554687 60.03125-34.644531c1.96875-1.082031 4.441406-.453125 5.652344 1.441406 1.207031 1.894532.742187 4.402344-1.070313 5.734375l-32.964844 23.039063 22.128907-12.800782c1.960937-1.117187 4.457031-.507812 5.6875 1.382813 1.230468 1.894531.773437 4.421875-1.046876 5.761719l-35.71875 25.972656 21.195313-12.226562c1.925781-1.105469 4.378906-.546876 5.636719 1.28125 1.261718 1.832031.90625 4.320312-.816406 5.726562l-41.710938 33.730469 24.238281-13.984375c1.910157-1.089844 4.332031-.550782 5.597657 1.25 1.265624 1.796875.960937 4.261718-.710938 5.695312l-28.882812 24.488282 12.523437-7.226563c1.902344-1.074219 4.308594-.539063 5.574219 1.238281 1.265625 1.78125.988281 4.226563-.648438 5.675782l-14.40625 12.457031.429688-.238281c1.800781-1.027344 4.078125-.613282 5.402344.984374 1.320312 1.597657 1.300781 3.914063-.042969 5.492188l-16.324219 19.039062c1.640625-.316406 3.316406.355469 4.285156 1.71875.96875 1.363282 1.050782 3.164063.210938 4.609376l-10.367188 17.820312c1.117188 2.035156.40625 4.589844-1.605468 5.75l-3.601563 2.074219c-.660156.378906-1.414063.574219-2.175781.5625zm0 0" fill="#eb86be"></path><path d="m107.210938 502.191406c-1.679688-.003906-3.199219-.992187-3.886719-2.527344-.683594-1.535156-.40625-3.328124.714843-4.582031l9.445313-10.539062-24.839844 14.347656c-1.90625 1.09375-4.328125.5625-5.601562-1.226563-1.273438-1.792968-.980469-4.253906.675781-5.695312l12.640625-10.921875-17.871094 10.316406c-1.878906 1.046875-4.242187.53125-5.515625-1.203125-1.273437-1.734375-1.054687-4.144531.507813-5.625l20.574219-18.773437-23.039063 13.3125c-1.855469 1.03125-4.183594.542969-5.46875-1.140625-1.285156-1.6875-1.136719-4.0625.347656-5.574219l19.285157-19.269531-14.625 8.441406c-1.867188 1.089844-4.25.613281-5.554688-1.105469-1.304688-1.722656-1.117188-4.144531.433594-5.644531l7.832031-7.621094c-.714844-.371094-1.304687-.941406-1.707031-1.640625-1.175782-2.039062-.476563-4.648437 1.5625-5.828125l19.773437-11.417968c1.863281-1.085938 4.246094-.613282 5.550781 1.105468 1.304688 1.722656 1.121094 4.144532-.433593 5.644532l-2.03125 1.972656 13.203125-7.621094c1.851562-1.027344 4.179687-.542969 5.464844 1.144531 1.285156 1.683594 1.136718 4.058594-.34375 5.574219l-19.328126 19.25 28.746094-16.589844c1.878906-1.046875 4.246094-.53125 5.519532 1.203125 1.273437 1.734375 1.054687 4.144531-.507813 5.625l-20.558594 18.773438 22.886719-13.210938c1.90625-1.09375 4.328125-.5625 5.601562 1.226563 1.273438 1.789062.980469 4.253906-.675781 5.695312l-12.640625 10.9375 9.089844-5.238281c1.8125-1.035156 4.109375-.605469 5.425781 1.015625 1.320313 1.621094 1.265625 3.957031-.117187 5.519531l-10.753906 11.949219c1.910156.039062 3.5625 1.34375 4.039062 3.195312.480469 1.851563-.332031 3.792969-1.980469 4.757813l-19.707031 11.382813c-.640625.390624-1.378906.597656-2.132812.605468zm0 0" fill="#636c77"></path><path d="m263.738281 374.582031c-1.8125.003907-3.429687-1.144531-4.027343-2.855469-.601563-1.710937-.054688-3.617187 1.367187-4.746093l18.574219-14.832031-37.210938 21.480468c-1.941406 1.101563-4.402344.523438-5.648437-1.328125-1.246094-1.847656-.855469-4.347656.894531-5.730469l34.234375-26.726562-51.523437 29.707031c-1.964844 1.125-4.472657.519531-5.703126-1.382812-1.234374-1.902344-.765624-4.4375 1.070313-5.769531l33.535156-24.234376-43.886719 25.328126c-1.992187 1.214843-4.589843.605468-5.832031-1.367188-1.246093-1.976562-.671875-4.582031 1.285157-5.855469l20.921874-14.300781-26.453124 15.242188c-1.945313 1.113281-4.421876.535156-5.667969-1.328126-1.25-1.863281-.839844-4.375.933593-5.746093l42.160157-32.332031-48.910157 28.277343c-1.921874 1.125-4.378906.585938-5.652343-1.238281-1.273438-1.820312-.9375-4.316406.777343-5.734375l35.039063-29.335937-30.070313 17.355468c-1.832031 1.050782-4.15625.601563-5.464843-1.050781-1.3125-1.65625-1.214844-4.019531.222656-5.5625l19.5-20.777344-8.175781 4.71875c-1.628906.949219-3.6875.71875-5.0625-.566406-1.378906-1.289063-1.746094-3.324219-.910156-5.015625l5.425781-11.042969c-.378907-.3125-.703125-.695312-.945313-1.125-1.179687-2.039062-.480468-4.648437 1.5625-5.828125l5.050782-2.925781c1.625-.945313 3.679687-.714844 5.054687.566406 1.375 1.285157 1.75 3.316407.917969 5.003907l-3.199219 6.519531 21-12.125c1.832031-1.046875 4.152344-.601563 5.464844 1.054687 1.308593 1.652344 1.214843 4.015625-.226563 5.558594l-19.496094 20.777344 47.539063-27.441406c1.917969-1.125 4.378906-.585938 5.652344 1.238281 1.273437 1.820312.933593 4.316406-.78125 5.734375l-35.039063 29.335937 62.984375-36.351562c1.945313-1.09375 4.402344-.507813 5.640625 1.347656 1.238282 1.855469.84375 4.347656-.910156 5.726563l-42.171875 32.339843 66.832031-38.578125c1.988282-1.152344 4.53125-.527344 5.753906 1.417969 1.222657 1.945313.6875 4.511719-1.214843 5.800781l-20.847657 14.261719 19.125-11.042969c1.964844-1.128906 4.472657-.523437 5.703126 1.378906 1.234374 1.902344.761718 4.4375-1.070313 5.769532l-33.542969 24.246094 32.339844-18.671876c1.941406-1.125 4.421875-.554687 5.675781 1.304688 1.253907 1.859375.855469 4.371094-.914062 5.753906l-34.234375 26.722656 33.382812-19.273437c1.929688-1.097656 4.375-.53125 5.628906 1.300781 1.25 1.835938.886719 4.320313-.835937 5.71875l-18.617187 14.867188 17.066406-9.855469c1.898437-1.085937 4.3125-.558594 5.585937 1.21875 1.273438 1.78125.996094 4.234375-.644531 5.683594l-9.023438 7.902343c1.820313.222657 3.289063 1.582032 3.660157 3.375.367187 1.792969-.449219 3.621094-2.027344 4.542969l-31.832031 18.382813c-1.898438 1.085937-4.3125.558594-5.585938-1.222656-1.273437-1.777344-.996094-4.234376.648438-5.683594l5.75-5.042969-28.46875 16.4375c-.640625.394531-1.378906.613281-2.132813.628906zm0 0" fill="#a38671"></path><path d="m260.769531 331.566406c-1.808593 0-3.417969-1.140625-4.023437-2.84375-.601563-1.707031-.0625-3.605468 1.34375-4.742187l8.429687-6.824219-21.476562 12.386719c-1.957031 1.113281-4.4375.515625-5.675781-1.363281-1.234376-1.882813-.796876-4.398438 1-5.75l27.960937-20.710938-35.589844 20.546875c-1.976562 1.136719-4.496093.523437-5.722656-1.394531-1.230469-1.917969-.734375-4.464844 1.121094-5.78125l35.421875-25.148438-40.882813 23.59375c-1.980469 1.117188-4.488281.488282-5.703125-1.433594-1.214844-1.921874-.710937-4.457031 1.148438-5.765624l61.4375-42.421876-68.265625 39.433594c-2.003907 1.140625-4.550781.484375-5.75-1.484375-1.203125-1.96875-.625-4.53125 1.304687-5.792969l19.183594-12.410156-21.199219 12.238282c-2 1.140624-4.550781.484374-5.75-1.484376-1.203125-1.96875-.625-4.535156 1.304688-5.796874l27.445312-17.703126-29.757812 17.175782c-2.003907 1.121094-4.535157.453125-5.726563-1.507813-1.191406-1.960937-.617187-4.515625 1.296875-5.78125l24.644531-15.75-26.554687 15.359375c-1.984375 1.085938-4.472656.429688-5.667969-1.492187-1.195312-1.921875-.679687-4.445313 1.171875-5.746094l80.527344-53.714844-84.386719 48.714844c-1.996094 1.1875-4.574218.558594-5.800781-1.414063-1.226563-1.972656-.648437-4.5625 1.296875-5.828124l74.632812-49.683594-76.953124 44.433594c-2.015626 1.222656-4.640626.582031-5.863282-1.433594s-.582031-4.640625 1.433594-5.863282l11.09375-7.082031-10.566406 6.101563c-1.992188 1.097656-4.5.4375-5.691406-1.503906-1.191407-1.9375-.652344-4.472657 1.230468-5.757813l27.664063-18.023437-27.40625 15.832031c-2.011719 1.230469-4.636719.597656-5.867188-1.414063-1.230469-2.007812-.597656-4.636718 1.410157-5.867187l12.742187-8.25-11.949219 6.902343c-1.992187 1.15625-4.539062.519532-5.757812-1.433593s-.667969-4.519531 1.246094-5.800781l41.972656-28.246094-50.941406 29.40625c-1.984376 1.132812-4.507813.503906-5.726563-1.429688-1.21875-1.929687-.699219-4.480468 1.175781-5.78125l56.816406-39.09375-60.9375 35.175782c-1.972656 1.066406-4.4375.417968-5.632812-1.480469-1.195312-1.898438-.71875-4.398438 1.09375-5.722657l52.726562-36.144531-49.730468 28.714844c-1.984375 1.097656-4.484375.449219-5.6875-1.472656-1.203125-1.925781-.6875-4.457031 1.171875-5.757813l36.507812-24.632812-35.910156 20.726562c-1.292969.808594-2.917969.863282-4.261719.148438-1.347656-.714844-2.210937-2.09375-2.261718-3.617188-.054688-1.523437.707031-2.960937 2-3.769531l32.855468-22.125-32.855468 18.933594c-1.894532 1.09375-4.308594.578125-5.589844-1.191407-1.28125-1.773437-1.015625-4.230468.617187-5.683593l9.128907-8.132813-7.183594 4.15625c-1.757813 1.019532-3.988282.664063-5.339844-.855468-1.347656-1.519532-1.4375-3.777344-.214844-5.402344l5.117188-6.824219c-1.710938-.386719-3.011719-1.777344-3.28125-3.511719-.265625-1.734375.554687-3.457031 2.070312-4.339844l13.253906-7.679687c1.753907-1.015625 3.976563-.65625 5.324219.855469 1.347657 1.515625 1.441407 3.765625.230469 5.390625l-3.414062 4.539062 25.269531-14.589843c1.875-.996094 4.195312-.460938 5.445312 1.253906s1.050781 4.089844-.472656 5.570312l-9.136719 8.148438 103.003906-59.398438c1.984376-1.101562 4.484376-.453125 5.6875 1.472656 1.199219 1.925782.6875 4.453126-1.171874 5.753907l-32.878907 22.1875 35.191407-20.308594c1.984374-1.101563 4.484374-.453125 5.683593 1.472656 1.203125 1.921875.6875 4.453125-1.171875 5.753907l-36.402344 24.574218 39.808594-22.988281c1.980469-1.101563 4.476563-.460937 5.683594 1.457031 1.207031 1.917969.707031 4.445313-1.144531 5.753906l-52.753907 36.15625 58.695313-33.875c1.980469-1.136718 4.503906-.507812 5.722656 1.425782s.699219 4.480468-1.175781 5.78125l-56.824219 39.066406 64.855469-37.441406c1.988281-1.15625 4.539062-.523438 5.757812 1.429687 1.21875 1.957031.667969 4.523438-1.246093 5.804688l-42.027344 28.289062 50.125-28.945312c2.011719-1.230469 4.636719-.597657 5.867187 1.410156 1.230469 2.011719.597657 4.636719-1.410156 5.867187l-12.707031 8.21875 19.847656-11.453124c2-1.117188 4.523438-.457032 5.71875 1.496093 1.195313 1.953125.636719 4.5-1.265625 5.777344l-27.648437 18.003906 39.554687-22.835937c2.007813-1.148438 4.566406-.484375 5.765625 1.492187 1.199219 1.980469.601563 4.554688-1.347656 5.804688l-11.09375 7.054687 26.027344-15.015625c1.992187-1.136719 4.527343-.492187 5.734375 1.457031 1.210937 1.949219.664062 4.503907-1.234375 5.785157l-74.667969 49.699219 82.660156-47.71875c1.996094-1.132813 4.527344-.488282 5.738282 1.460937 1.207031 1.945313.660156 4.5-1.238282 5.785156l-80.46875 53.683594 77.15625-44.554687c2.003906-1.121094 4.535156-.453126 5.726563 1.507812 1.195312 1.964844.621093 4.519531-1.296875 5.78125l-24.746094 15.785156 14.410156-8.320312c2.011719-1.230469 4.636719-.597656 5.867188 1.414062 1.230468 2.007813.597656 4.636719-1.410156 5.867188l-27.453126 17.714844 18.058594-10.429688c1.296875-.792969 2.925782-.835938 4.265625-.109375 1.335938.730469 2.1875 2.117187 2.226563 3.640625.039062 1.523438-.738282 2.953125-2.039063 3.75l-19.132812 12.363281 13.59375-7.839843c1.980469-1.121094 4.488281-.488282 5.703125 1.433593 1.214844 1.917969.710937 4.457031-1.144532 5.765625l-61.484374 42.453125 28.160156-16.210937c1.972656-1.140625 4.496094-.527344 5.722656 1.394531 1.230469 1.917969.734375 4.460937-1.121094 5.78125l-35.441406 25.148437 20.820312-12.015624c1.957032-1.113282 4.441407-.515626 5.675782 1.367187 1.234375 1.878906.800781 4.394531-.996094 5.75l-27.914062 20.734375 5.058593-2.917969c1.929688-1.089843 4.371094-.523437 5.621094 1.304688 1.253906 1.824219.898437 4.308593-.816406 5.710937l-27 21.726563c.121093.160156.234375.328125.335937.503906 1.171875 2.035156.472656 4.640625-1.5625 5.816406l-23.664062 13.65625c-.644532.378907-1.382813.578125-2.132813.578125zm0 0" fill="#b29580"></path><path d="m224.332031 105.492188c-1.765625 0-3.351562-1.089844-3.984375-2.738282-.632812-1.652344-.179687-3.519531 1.132813-4.703125l18.65625-16.722656c-.691407-1.9375.097656-4.089844 1.875-5.121094l11.300781-6.527343c1.890625-1.089844 4.300781-.578126 5.582031 1.191406 1.285157 1.765625 1.023438 4.21875-.601562 5.675781l-.59375.539063 1.824219-1.058594c1.324218-.839844 3-.886719 4.367187-.125 1.371094.765625 2.210937 2.21875 2.1875 3.785156-.019531 1.566406-.898437 2.996094-2.289063 3.722656l-37.324218 21.519532c-.648438.375-1.382813.570312-2.132813.5625zm0 0" fill="#b29580"></path><g fill="#262626"><path d="m252.167969 502.292969c4.164062 0 13.285156-6.246094 5.015625-6.246094-4.164063 0-13.285156 6.246094-5.015625 6.246094zm0 0"></path><path d="m444.5 359.863281c-7.347656-2.429687-14.839844-4.582031-22.382812-6.597656-9.523438-29.707031-13.914063-60.820313-12.988282-92.003906 1.914063-25.652344 11.382813-49.851563 13.261719-75.605469 2.636719-31.789062-1.734375-63.769531-12.800781-93.6875-25.394532-65.289062-87.6875-92.082031-154.640625-91.691406-68.617188.402344-131.53125 29.21875-156.160157 96.605468-10.257812 29.191407-14.222656 60.226563-11.628906 91.058594 2.277344 29.5625 13.464844 57.234375 13.652344 87.042969-.726562 26.871094-5.148438 53.511719-13.140625 79.179687-40.109375 12.679688-72.933594 34.449219-81.605469 85.820313-4.378906 25.941406-16.648437 59.101563 14.667969 62.777344 26.121094 3.066406 54.519531 0 80.785156 0h148.601563c1.046875.472656 2.195312.695312 3.34375.648437.492187.011719.980468-.011718 1.46875-.066406h.144531c.757813-.105469 1.5-.289062 2.21875-.554688h117.382813 99.242187c9.984375 0 24.382813 2.199219 31.6875-6.441406 12.875-15.25-2.707031-72.398437-9.636719-89.550781-9.246094-22.574219-28.140625-39.804687-51.472656-46.933594zm-333.046875-110.78125c-5.597656-39.089843-15.835937-75.210937-9.832031-115.054687 12.902344-85.476563 78.390625-130.277344 164.0625-125.480469 75.9375 4.222656 128.941406 49.304687 141.535156 124.03125 6.714844 39.84375-2.277344 74.835937-8.492188 113.9375-4.175781 34.640625-1.050781 69.773437 9.175782 103.132813-23.585938-5.664063-47.632813-10.179688-71-15.667969-.058594-.050781-.144532-.082031-.203125-.125 1.707031-15.59375-9.675781-38.972657-13.714844-53.222657 7.90625-10.410156 14.789063-21.554687 20.558594-33.28125 4.058593-9.386718 10.355469-17.632812 18.339843-24.019531 20.007813-19.789062 47.726563-98.210937-6.027343-85.054687-.472657.144531-.933594.320312-1.382813.53125-25.269531-2.3125-48.75-14.023438-65.800781-32.820313-10.546875-11.195312-16.398437-26.605469-28.753906-35.53125-2.144531-1.546875-7.441407.441407-9.386719 1.347657-11.460938 5.339843-16.078125 13.652343-25.023438 22.960937-18.941406 19.96875-42.53125 34.941406-68.664062 43.574219-7.902344-5.839844-22.257812-1.410156-28.460938 4.152344-6.441406 5.847656-9.253906 14.695312-7.371093 23.1875 1.210937 9.882812 8.96875 20.480468 11.605469 30.191406 1.390624 5.117187-.171876 13.746094 2.875 18.773437 4.164062 6.824219 7.773437 5.058594 12.96875 10.238281 10.992187 10.972657 14.550781 21.417969 23.691406 37.25 3.804687 6.59375 8.53125 14.148438 14.078125 21.800782-3.984375 13.652344-14.421875 35.839844-13.960938 50.988281-23.644531 5.367187-48.460937 9.386719-71.566406 15.453125 10.46875-32.671875 14.128906-67.148438 10.75-101.292969zm47.15625-107.160156c11.898437-3.15625 23.402344-7.644531 34.292969-13.378906 10.226562-5.875 19.851562-12.734375 28.742187-20.480469 4.746094-4.0625 22.074219-27.1875 27.007813-27.65625 9.957031-.9375 30.285156 32.425781 38.613281 39.484375 18.011719 15.332031 40.789063 23.9375 64.445313 24.34375 1.605468 1.570313 3.984374 2.050781 6.074218 1.230469 25.804688-6.316406 10.949219 48.503906 5.613282 58.929687-4.078126 7.980469-13.378907 9.925781-18.976563 15.761719-6.085937 6.339844-8.890625 18.933594-12.527344 26.453125-5.765625 11.847656-12.390625 23.253906-19.824219 34.132813-1.175781.699218-1.917968 1.503906-1.707031 2.289062v.09375c-9.089843 14.507812-21.777343 26.417969-36.828125 34.574219-60.46875 25.601562-79.957031-65.039063-105.589844-95.195313-4.082031-4.804687-7.800781-4.335937-13.144531-10.085937-10.871093-11.699219-4.5625-7.332031-9.828125-19.882813-2.203125-5.25-12.570312-62.457031 1.824219-48.136718 2.6875 2.660156 10.214844.40625 11.8125-2.476563zm88.609375 189.722656c25.738281 3.652344 46.183594-17.367187 62.242188-34.6875 1.390624-1.496093 2.628906-3.066406 3.96875-4.59375 5.117187 14.082031 12.882812 32.199219 11.09375 43.625-.308594 1.9375-.824219 3.839844-1.546876 5.664063l-.988281 2.09375c-13.398437 27.578125-71.679687 27.089844-94.25 21.160156-14.507812-3.804688-40.414062-14.632812-43.070312-31.625-1.558594-9.992188 4.507812-25.710938 9.449219-38.980469 14.769531 18.117188 33.328124 34.535157 53.101562 37.34375zm19.746094 41.308594c16.492187-1.53125 32.578125-6.007813 47.488281-13.21875-19.808594 41.824219-39.617187 83.640625-59.425781 125.441406-19.09375-40.273437-38.175782-80.550781-57.25-120.832031 22.121094 8.035156 45.769531 10.976562 69.1875 8.609375zm-167.355469 121.949219c-15.25-2.328125-26.453125-15.539063-26.257813-30.964844-.367187-14.457031 10.292969-26.835938 24.644532-28.613281 1.273437.375 2.621094.433593 3.925781.171875 1.144531.039062 2.285156.164062 3.414063.367187 13.738281 3.582031 23.382812 15.90625 23.558593 30.105469-.929687 15.597656-11.867187 30.898438-29.285156 28.933594zm-78.003906.691406c-14.464844-7.484375-5.246094-47.503906-2.242188-62.402344 7.5-37.15625 25.863281-58.273437 62.292969-69.90625 2.738281-.851562 5.5625-1.542968 8.335938-2.355468 1.648437.054687 3.296874-.222657 4.839843-.808594v68.308594c-19.417969 1.847656-34.203125 18.230468-34.058593 37.734374-.539063 11.691407 5.027343 22.824219 14.703124 29.40625h-3.480468c-11.597656 0-39.773438 5.496094-50.390625 0zm101.09375 0c11.175781-6.476562 18.257812-18.222656 18.773437-31.128906 0-.246094-.117187-.402344-.144531-.621094-.023437-.222656.101563-.28125.09375-.4375-.472656-18.816406-15.246094-34.152344-34.03125-35.328125v-72.003906c21.734375-5.402344 43.972656-9.609375 65.707031-14.566407 24.320313 51.355469 48.644532 102.707032 72.976563 154.0625h-123.375zm346.515625 0h-206.558594l72.617188-153.308594 75.316406 17.859375.785156.214844c1.007812.664063 2.207031.988281 3.414062.921875 1.449219.382812 2.933594.75 4.351563 1.160156v40.207032c-15.492187 2.484374-28.230469 13.535156-32.878906 28.519531-3.183594 11.785156-5.351563 34.261719 9.683593 37.300781 4.027344.808594 14.558594-5.394531 7.542969-6.828125-8.667969-1.707031-6.40625-16.957031-6.117187-22.953125.800781-16.503906 13.148437-33.152344 31.496094-29.183594 13.683593 3.472656 23.523437 15.429688 24.304687 29.523438.324219 3.625 2.386719 21.75-3.097656 22.859375-7.585938 1.527343-5.796875 7.828125 1.707031 6.316406 15.957031-3.21875 14.503906-17.125 13.863281-30.414063-.769531-18.789062-15.394531-34.070312-34.132812-35.667968v-35.449219c39.050781 15.515625 56.414062 44.988281 61.953125 91.957031 4.328125 36.589844 6.535156 36.941406-24.25 36.941406zm0 0"></path></g></svg>