<!-- icon666.com - MILLIONS OF FREE VECTOR ICONS --><svg viewBox="0 0 512.0196 512" xmlns="http://www.w3.org/2000/svg"><path d="m471.726562 365.304688-98.554687-22.75c-6.070313-13.382813-18.25-23-32.679687-25.796876l-3.902344-30.941406c4.875-3.976562 8.992187-8.792968 12.160156-14.226562 5.34375-11.515625 8.449219-23.945313 9.15625-36.625 13.0625-1.933594 22.449219-13.566406 21.582031-26.742188-.023437-5.253906 1.058594-10.457031 3.175781-15.265625 1.046876-2.492187 2.414063-5.308593 3.949219-8.355469 9.976563-18.898437 5.742188-33.746093-1.542969-41.359374-3.945312-4.09375-9.1875-6.691407-14.832031-7.355469 6.484375-20.402344 14.371094-58.640625-3.847656-89.847657-17.808594-30.558593-55.09375-46.0273432-110.804687-46.0273432-55.714844 0-93.015626 15.4687502-110.808594 45.9843752-18.242188 31.25-10.324219 69.546875-3.832032 89.925781-5.382812.835937-10.335937 3.429687-14.085937 7.378906-7.226563 7.621094-11.410156 22.460938-1.519531 41.097657 1.605468 3.207031 2.96875 6.023437 4.003906 8.53125 2.113281 4.816406 3.226562 10.011718 3.273438 15.269531-.382813 7.132812 2.144531 14.117187 7.007812 19.351562 3.96875 3.949219 9.074219 6.558594 14.601562 7.46875.695313 12.664063 3.769532 25.089844 9.070313 36.613281 3.167969 5.433594 7.285156 10.246094 12.160156 14.21875l-3.925781 30.90625c-14.441406 2.789063-26.632812 12.40625-32.707031 25.796876l-98.527344 22.75c-7.988281 1.867187-14.609375 7.429687-17.828125 14.976562-14.476562 36.347656-22.089844 75.066406-22.4570312 114.191406-.1640628 4.535156 1.5429692 8.9375 4.7187502 12.179688 3.328125 3.425781 7.90625 5.359375 12.6875 5.359375h477.183593c4.777344 0 9.351563-1.933594 12.683594-5.359375 3.164063-3.230469 4.875-7.613282 4.726563-12.136719-.371094-39.136719-7.984375-77.867187-22.453125-114.234375-3.222656-7.546875-9.84375-13.105469-17.832032-14.976562zm-159.300781 129.636718h-15.550781l-19.25-80.117187c6.085938-1.910157 11.8125-4.820313 16.9375-8.609375.921875 1.707031 1.769531 3.277344 2.511719 4.761718 1.820312 3.730469 5.351562 6.339844 9.453125 6.980469.636718.101563 1.285156.152344 1.929687.152344 3.492188-.011719 6.828125-1.445313 9.242188-3.96875l39.492187-41.617187c-2.867187 33-12.519531 93.328124-44.765625 122.417968zm-112.804687 0c-32.210938-29.078125-41.890625-89.445312-44.773438-122.433594l39.527344 41.660157c2.394531 2.515625 5.714844 3.953125 9.191406 3.976562.644532 0 1.289063-.054687 1.925782-.15625 4.101562-.636719 7.628906-3.238281 9.457031-6.960937.742187-1.484375 1.585937-3.097656 2.507812-4.769532 5.128907 3.789063 10.855469 6.699219 16.9375 8.609376l-19.257812 80.128906zm-114.277344-51.199218c14.140625 0 25.601562 11.460937 25.601562 25.601562 0 14.136719-11.460937 25.597656-25.601562 25.597656-14.136719 0-25.601562-11.460937-25.601562-25.597656 0-14.140625 11.464843-25.601562 25.601562-25.601562zm8.535156-16.210938v-57.089844l42.972656-9.914062c1.246094 26.058594 7.578126 93.386718 39.585938 134.46875h-57.242188c5.679688-7.347656 8.78125-16.367188 8.816407-25.652344-.027344-20.269531-14.28125-37.730469-34.132813-41.8125zm162.132813-52.054688c11.660156.867188 22.3125 6.929688 29.011719 16.511719-5.5625 4.332031-12.136719 7.179688-19.105469 8.269531-6.546875 1.082032-13.226563 1.082032-19.773438 0-6.957031-1.09375-13.523437-3.9375-19.078125-8.269531 6.683594-9.5625 17.308594-15.625 28.945313-16.511719zm-4.804688 42.46875c1.585938.09375 3.171875.199219 4.804688.199219 1.628906 0 3.214843-.105469 4.804687-.199219l18.507813 77.039063h-46.625zm105.691407-69.886718-47.375 49.945312c-5.285157-9.941406-12.304688-18.855468-20.726563-26.324218 21.628906-4.035157 40.0625-18.089844 49.679687-37.878907 7.878907 1.933594 14.574219 7.113281 18.421876 14.257813zm-196.675782-294.636719c14.867188-24.117187 46.941406-36.34375 95.363282-36.34375 48.417968 0 80.5 12.226563 95.359374 36.34375 9.28125 17.253906 12.136719 37.246094 8.054688 56.410156-5.699219-18.046875-15.207031-38.046875-30.71875-47.554687-7.5-4.660156-17.320312-2.761719-22.546875 4.351562-4.734375 6.441406-17.492187 17.253906-49.714844 17.253906-32.222656 0-44.980469-10.8125-49.714843-17.253906-5.222657-7.136718-15.070313-9.027344-22.5625-4.324218-16.035157 9.820312-25.601563 30.839843-31.265626 49.328124-4.515624-19.703124-1.761718-40.375 7.746094-58.210937zm10.710938 173.738281c0-4.714844-3.820313-8.535156-8.535156-8.535156-3.757813.320312-7.507813-.75-10.527344-3.011719-1.617188-2.003906-2.402344-4.550781-2.1875-7.117187-.003906-7.628906-1.566406-15.179688-4.589844-22.1875-1.167969-2.789063-2.695312-5.972656-4.589844-9.734375-5.734375-10.820313-4.414062-18.210938-1.273437-21.53125 2.8125-2.660157 7.003906-3.238281 10.429687-1.433594.210938.089844.425782.167969.648438.230469.894531.40625 1.855468.65625 2.832031.742187.222656 0 .4375.121094.65625.121094.222656 0 .359375-.101563.546875-.113281.578125-.046875 1.152344-.152344 1.707031-.3125l.222657-.070313.195312-.066406c.320312-.089844.632812-.199219.9375-.324219.496094-.257812.964844-.566406 1.402344-.914062l.410156-.324219c.808594-.472656 1.4375-1.203125 1.78125-2.074219.070312-.109375.144531-.203125.207031-.316406.179688-.3125.339844-.636719.476563-.972656.101562-.292969.179687-.59375.238281-.894532.148437-.46875.257813-.949218.324219-1.433593 1.886718-15.652344 10.929687-58.148438 30.257812-70.164063 6.648438 9.054688 23.722656 24.226563 63.472656 24.226563s56.859376-15.171875 63.386719-24.140625c18.285157 11.195312 27.382813 49.496094 29.96875 66.988281-1.125 3.738281.472657 7.761719 3.855469 9.710937 1.257812.671876 2.664062 1.007813 4.089844.980469.5625.089844 1.136718.113281 1.707031.078125h.246094c.203125 0 .375-.144531.578125-.1875.679687-.082031 1.34375-.25 1.980468-.496094 3.492188-2.09375 7.945313-1.636718 10.941407 1.117188 3.164062 3.3125 4.503906 10.71875-1.316407 21.742188-1.808593 3.609374-3.335937 6.777343-4.519531 9.601562-3.035156 7-4.566406 14.558594-4.488281 22.1875.164062 2.582031-.652344 5.128906-2.289062 7.132812-2.996094 2.230469-6.703126 3.292969-10.425782 2.976563-4.714844 0-8.535156 3.820313-8.535156 8.535156-.015625 12.550781-2.5625 24.972657-7.492188 36.515625-3.867187 7.34375-17.5625 17.765625-35.609374 27.132813-3.0625 1.496093-5.769532 3.628906-7.9375 6.257812-8.253907 10.722657-20.625 17.492188-34.105469 18.660157-13.414063-1.167969-25.726563-7.898438-33.957031-18.558594-2.15625-2.660156-4.863282-4.820313-7.933594-6.339844-18.167969-9.429688-31.863282-19.847656-35.710938-27.171875-4.847656-11.566406-7.386718-23.972656-7.476562-36.511719zm35.4375 78.890625c.964844.457031 1.8125 1.125 2.484375 1.953125 11.464843 14.613282 28.621093 23.636719 47.15625 24.804688 18.601562-1.183594 35.808593-10.269532 47.28125-24.957032.683593-.792968 1.527343-1.425781 2.476562-1.863281 4.265625-2.191406 9.566407-5.179687 15.042969-8.632812l3.320312 26.339843c-1.953124 6.308594-13.808593 34.714844-68.121093 34.714844-54.460938 0-66.238281-28.570312-68.121094-34.695312l3.316406-26.371094c5.515625 3.484375 10.882813 6.453125 15.164063 8.707031zm-32.828125 27.757813c9.621093 19.789062 28.058593 33.839844 49.691406 37.871094-8.425781 7.46875-15.449219 16.382812-20.734375 26.324218l-47.378906-49.945312c3.855468-7.136719 10.546875-12.3125 18.421875-14.25zm-156.464844 161.226562c.371094-37 7.519531-73.621094 21.085937-108.046875 1.054688-2.550781 3.28125-4.433593 5.972657-5.050781l32.675781-7.542969v53.136719c-19.855469 4.082031-34.109375 21.542969-34.136719 41.8125.03125 9.300781 3.132813 18.328125 8.824219 25.683594zm318.53125-.09375c31.984375-41.085937 38.316406-108.371094 39.5625-134.441406l42.972656 9.949219v31.480469c-19.851562 4.082031-34.109375 21.546874-34.132812 41.8125v17.066406c0 9.425781 7.640625 17.066406 17.066406 17.066406 4.710937 0 8.53125-3.820312 8.53125-8.53125 0-4.714844-3.820313-8.535156-8.53125-8.535156v-17.066406c0-14.136719 11.460937-25.597657 25.597656-25.597657 14.140625 0 25.601563 11.460938 25.601563 25.597657v17.066406c-4.710938 0-8.535156 3.820312-8.535156 8.535156 0 4.710938 3.824218 8.53125 8.535156 8.53125 9.425781 0 17.066406-7.640625 17.066406-17.066406v-17.066406c-.023438-20.265626-14.28125-37.730469-34.132812-41.8125v-27.535157l32.683593 7.542969c2.691407.617188 4.917969 2.503906 5.972657 5.058594 13.550781 34.382812 20.582031 70.988281 20.734374 107.945312zm0 0" fill="#000000" style="fill: rgb(255, 255, 255);"></path></svg>