<!-- icon666.com - MILLIONS OF FREE VECTOR ICONS --><svg viewBox="0 0 24 24" xmlns="http://www.w3.org/2000/svg"><g id="Layer_4" data-name="Layer 4"><circle cx="13" cy="13" fill="#ffdf47" r="6" style="fill: rgb(29, 129, 36);"></circle></g><g id="Layer_2" data-name="Layer 2"><path d="m20 1a3.0034 3.0034 0 0 1 3 3v16a3.0034 3.0034 0 0 1 -3 3h-16a3.0034 3.0034 0 0 1 -3-3v-16a3.0034 3.0034 0 0 1 3-3zm0-1h-16a4 4 0 0 0 -4 4v16a4 4 0 0 0 4 4h16a4 4 0 0 0 4-4v-16a4 4 0 0 0 -4-4z" fill="#000000" style="fill: rgb(255, 255, 255);"></path></g><g id="Layer_3" data-name="Layer 3"><path d="m17.96 17.5a.4992.4992 0 0 1 -.4746-.3437 4.9668 4.9668 0 0 0 -2.6915-3.0215 3.7915 3.7915 0 0 0 -2.3144-.1006v2.9658a.5.5 0 0 1 -.82.3838l-5.9795-5a.5.5 0 0 1 0-.7676l5.98-5a.5.5 0 0 1 .82.3838v2.7891a5.5774 5.5774 0 0 1 4.3574 1.8769 7.0782 7.0782 0 0 1 1.6192 5.3975.5.5 0 0 1 -.4483.4345c-.0171.001-.0327.002-.0483.002zm-11.1807-5.5 4.7 3.93v-2.263a.5008.5008 0 0 1 .33-.4707 4.8494 4.8494 0 0 1 3.3359.0029 5.1027 5.1027 0 0 1 2.1983 1.6455 5.4683 5.4683 0 0 0 -1.251-2.5107 4.6358 4.6358 0 0 0 -4.0352-1.5069.4946.4946 0 0 1 -.4033-.1142.5009.5009 0 0 1 -.1748-.38v-2.2629z" fill="#000000" style="fill: rgb(255, 255, 255);"></path></g></svg>