<!-- icon666.com - MILLIONS OF FREE VECTOR ICONS --><svg version="1.1" id="Capa_1" xmlns="http://www.w3.org/2000/svg" xmlns:xlink="http://www.w3.org/1999/xlink" x="0px" y="0px" viewBox="0 0 213.712 213.712" style="enable-background:new 0 0 213.712 213.712;" xml:space="preserve"><path d="M161.623,80.811C161.623,36.251,125.371,0,80.811,0C36.251,0,0,36.251,0,80.811c0,21.586,8.406,41.88,23.669,57.144 c15.263,15.262,35.553,23.667,57.146,23.667c13.693,0,27.038-3.454,38.949-10.038l62.129,62.129l31.819-31.819l-62.129-62.129 C158.169,107.85,161.623,94.504,161.623,80.811z M192.499,181.893l-10.606,10.606l-59.985-59.985l-5.103,3.349 c-10.726,7.038-23.171,10.759-36.002,10.759c-17.574,0-34.098-6.845-46.526-19.274C21.846,114.917,15,98.39,15,80.811 C15,44.522,44.522,15,80.811,15c36.289,0,65.813,29.522,65.813,65.811c0,12.818-3.721,25.266-10.761,35.995l-3.348,5.103 L192.499,181.893z M80.811,30C52.794,30,30,52.794,30,80.811c0,13.573,5.285,26.333,14.882,35.931 c9.596,9.596,22.355,14.88,35.933,14.88c28.016,0,50.809-22.794,50.809-50.811S108.829,30,80.811,30z M80.811,116.621 c-9.566,0-18.56-3.725-25.321-10.487C48.725,99.37,45,90.377,45,80.811C45,61.064,61.064,45,80.811,45 c19.747,0,35.813,16.064,35.813,35.811S100.56,116.621,80.811,116.621z" fill="#000000" style="fill: rgb(255, 255, 255);"></path></svg>