<!-- icon666.com - MILLIONS OF FREE VECTOR ICONS --><svg viewBox="0 0 24 24" xmlns="http://www.w3.org/2000/svg"><g id="Layer_4" data-name="Layer 4"><circle cx="13" cy="13" fill="#ffdf47" r="6" style="fill: rgb(37, 141, 17);"></circle></g><g id="Layer_2" data-name="Layer 2"><path d="m20 1a3.0034 3.0034 0 0 1 3 3v16a3.0034 3.0034 0 0 1 -3 3h-16a3.0034 3.0034 0 0 1 -3-3v-16a3.0034 3.0034 0 0 1 3-3zm0-1h-16a4 4 0 0 0 -4 4v16a4 4 0 0 0 4 4h16a4 4 0 0 0 4-4v-16a4 4 0 0 0 -4-4z" fill="#000000" style="fill: rgb(255, 255, 255);"></path></g><g id="Layer_3" data-name="Layer 3"><path d="m12 18.5h-4a2.5023 2.5023 0 0 1 -2.5-2.5v-8a2.5023 2.5023 0 0 1 2.5-2.5h4a2.5023 2.5023 0 0 1 2.5 2.5v2a.5.5 0 0 1 -1 0v-2a1.5017 1.5017 0 0 0 -1.5-1.5h-4a1.5017 1.5017 0 0 0 -1.5 1.5v8a1.5017 1.5017 0 0 0 1.5 1.5h4a1.5017 1.5017 0 0 0 1.5-1.5v-2a.5.5 0 0 1 1 0v2a2.5023 2.5023 0 0 1 -2.5 2.5z" fill="#000000" style="fill: rgb(255, 255, 255);"></path><path d="m17 12.5h-5a.5.5 0 0 1 0-1h5a.5.5 0 0 1 0 1z" fill="#000000" style="fill: rgb(255, 255, 255);"></path><path d="m16 14.5a.5.5 0 0 1 -.3535-.8535l1.6465-1.6465-1.6465-1.6465a.5.5 0 0 1 .707-.707l2 2a.5.5 0 0 1 0 .707l-2 2a.4981.4981 0 0 1 -.3535.1465z" fill="#000000" style="fill: rgb(255, 255, 255);"></path></g></svg>