<!-- icon666.com - MILLIONS OF FREE VECTOR ICONS --><svg clip-rule="evenodd" fill-rule="evenodd" image-rendering="optimizeQuality" shape-rendering="geometricPrecision" text-rendering="geometricPrecision" viewBox="0 0 43.3492 43.3492" xmlns="http://www.w3.org/2000/svg"><g id="Layer_x0020_1"><g id="_407655488" fill-rule="nonzero"><path id="_407657000" d="m20.9235 34.3127h1.9098v-22.295h-1.9098zm2.2918.7604h-2.6698c-.2127 0-.382-.1701-.382-.38v-23.0554c0-.2103.1693-.3804.382-.3804h2.6698c.2087 0 .378.1701.378.3804v23.0554c0 .2099-.1693.38-.378.38z" fill="#000000" data-darkreader-inline-fill="" style="--darkreader-inline-fill: var(--darkreader-text-545454, #b3aca2); fill: rgb(255, 255, 255);"></path><path id="_407657048" d="m14.3001 34.3127h1.6657v-17.1983h-1.6657zm2.0477.7604h-2.4297c-.2087 0-.378-.1701-.378-.38v-17.9591c0-.2099.1693-.3804.378-.3804h2.4297c.2087 0 .378.1705.378.3804v17.9591c0 .2099-.1693.38-.378.38z" fill="#000000" data-darkreader-inline-fill="" style="--darkreader-inline-fill: var(--darkreader-text-545454, #b3aca2); fill: rgb(255, 255, 255);"></path><path id="_407657528" d="m27.791 34.3127h1.6696v-17.1983h-1.6696zm2.0477.7604h-2.4257c-.2127 0-.382-.1701-.382-.38v-17.9591c0-.2099.1693-.3804.382-.3804h2.4257c.2087 0 .3819.1705.3819.3804v17.9591c0 .2099-.1732.38-.3819.38z" fill="#000000" data-darkreader-inline-fill="" style="--darkreader-inline-fill: var(--darkreader-text-545454, #b3aca2); fill: rgb(255, 255, 255);"></path><path id="_407657024" d="m7.6728 34.3127h1.6657v-10.1603h-1.6657zm2.0476.7604h-2.4256c-.2127 0-.382-.1701-.382-.38v-10.921c0-.2103.1693-.3805.382-.3805h2.4256c.2088 0 .382.1702.382.3805v10.921c0 .2099-.1732.38-.382.38z" fill="#000000" data-darkreader-inline-fill="" style="--darkreader-inline-fill: var(--darkreader-text-545454, #b3aca2); fill: rgb(255, 255, 255);"></path><path id="_407656952" d="m34.4183 34.1915h1.6657v-10.1607h-1.6657zm2.0477.7604h-2.4257c-.2126 0-.382-.1702-.382-.3805v-10.921c0-.2095.1694-.38.382-.38h2.4257c.2087 0 .378.1705.378.38v10.921c0 .2103-.1693.3805-.378.3805z" fill="#000000" data-darkreader-inline-fill="" style="--darkreader-inline-fill: var(--darkreader-text-545454, #b3aca2); fill: rgb(255, 255, 255);"></path><path id="_407656832" d="m42.9673 38.9562h-40.2837c-.2126 0-.382-.1701-.382-.3804v-35.9178c0-.2099.1694-.38.382-.38.2087 0 .378.1701.378.38v35.5378h39.9057c.2126 0 .382.1701.382.38 0 .2103-.1694.3804-.382.3804z" fill="#000000" data-darkreader-inline-fill="" style="--darkreader-inline-fill: var(--darkreader-text-545454, #b3aca2); fill: rgb(255, 255, 255);"></path><path id="_407656424" d="m4.9872 5.3439c-.0984 0-.1929-.0374-.2677-.1114l-2.0359-2.037-2.0358 2.0331c-.1457.1484-.3859.1484-.5356 0-.1496-.1485-.1496-.3891 0-.5376l2.3036-2.302c.1418-.1425.3938-.1425.5356 0l2.3036 2.3056c.1496.1485.1496.3894 0 .5379-.0709.074-.1693.1114-.2678.1114z" fill="#000000" data-darkreader-inline-fill="" style="--darkreader-inline-fill: var(--darkreader-text-545454, #b3aca2); fill: rgb(255, 255, 255);"></path><path id="_407656400" d="m40.6637 41.2614c-.0985 0-.193-.0366-.2678-.1111-.1496-.1484-.1496-.389 0-.5375l2.0358-2.037-2.0319-2.0327c-.1496-.1484-.1496-.3891 0-.5375.1457-.1485.386-.1489.5356 0l2.3036 2.3017c.0709.0712.1103.1677.1103.2685 0 .1012-.0394.1977-.1103.269l-2.3076 2.3055c-.0748.0745-.1693.1111-.2677.1111z" fill="#000000" data-darkreader-inline-fill="" style="--darkreader-inline-fill: var(--darkreader-text-545454, #b3aca2); fill: rgb(255, 255, 255);"></path><path id="_407656448" d="m16.4108 7.416c-.13 0-.2599-.0681-.3269-.1906-.1063-.1815-.0433-.4142.1379-.519l4.1819-2.4138c.1812-.1052.4135-.043.5159.139.1063.1823.0433.4146-.1379.5198l-4.1819 2.4134c-.0591.0347-.1221.0512-.189.0512zm10.8289 2.4584c-.0984 0-.1969-.039-.2717-.1162l-4.4064-4.558c-.1457-.1508-.1418-.3914.0079-.5375.1496-.1461.3938-.1421.5355.0091l4.4104 4.5579c.1457.1509.1417.3919-.0118.5376-.0709.0716-.1694.1071-.2639.1071zm6.7061 4.5387c-.067 0-.1378-.0181-.1969-.0563l-4.4852-2.7549c-.1772-.1099-.2362-.3442-.126-.523.1103-.1791.3466-.235.5238-.1252l4.4851 2.7549c.1772.1099.2363.3442.126.5229-.0748.117-.1969.1816-.3268.1816zm-24.434 4.0961c-.0631 0-.1261-.015-.1851-.0465-.1812-.1008-.252-.3315-.1497-.5158l4.9695-9.1145c.0985-.1843.3308-.252.5159-.152.1851.1008.252.3316.1536.5159l-4.9735 9.1144c-.0669.1268-.1969.1985-.3307.1985z" fill="#000000" data-darkreader-inline-fill="" style="--darkreader-inline-fill: var(--darkreader-text-545454, #b3aca2); fill: rgb(255, 255, 255);"></path><path id="_407656856" d="m8.8226 18.334c-.5828 0-1.0553.4737-1.0553 1.0557s.4725 1.0557 1.0553 1.0557 1.0554-.4737 1.0554-1.0557-.4726-1.0557-1.0554-1.0557zm0 2.8718c-1.0002 0-1.8153-.8147-1.8153-1.8161s.8151-1.8161 1.8153-1.8161 1.8154.8147 1.8154 1.8161-.8152 1.8161-1.8154 1.8161z" fill="#000000" data-darkreader-inline-fill="" style="--darkreader-inline-fill: var(--darkreader-text-545454, #b3aca2); fill: rgb(255, 255, 255);"></path><path id="_407656184" d="m15.1664 6.6982c-.5828 0-1.0553.4733-1.0553 1.0553 0 .5824.4725 1.0557 1.0553 1.0557s1.0554-.4733 1.0554-1.0557c0-.582-.4726-1.0553-1.0554-1.0553zm0 2.8718c-1.0002 0-1.8153-.8151-1.8153-1.8165s.8151-1.8157 1.8153-1.8157c1.0042 0 1.8154.8143 1.8154 1.8157s-.8112 1.8165-1.8154 1.8165z" fill="#000000" data-darkreader-inline-fill="" style="--darkreader-inline-fill: var(--darkreader-text-545454, #b3aca2); fill: rgb(255, 255, 255);"></path><path id="_407656136" d="m21.8371 2.8482c-.5828 0-1.0554.4737-1.0554 1.0557s.4726 1.0553 1.0554 1.0553c.5788 0 1.0553-.4733 1.0553-1.0553s-.4765-1.0557-1.0553-1.0557zm0 2.8718c-1.0042 0-1.8193-.8147-1.8193-1.8161s.8151-1.8161 1.8193-1.8161c1.0001 0 1.8153.8147 1.8153 1.8161s-.8152 1.8161-1.8153 1.8161z" fill="#000000" data-darkreader-inline-fill="" style="--darkreader-inline-fill: var(--darkreader-text-545454, #b3aca2); fill: rgb(255, 255, 255);"></path><path id="_407655848" d="m28.2399 9.4707c-.5828 0-1.0553.4734-1.0553 1.0554 0 .5824.4725 1.0557 1.0553 1.0557s1.0554-.4733 1.0554-1.0557c0-.582-.4726-1.0554-1.0554-1.0554zm0 2.8719c-1.0002 0-1.8153-.8147-1.8153-1.8165 0-1.001.8151-1.8157 1.8153-1.8157s1.8153.8147 1.8153 1.8157c0 1.0018-.8151 1.8165-1.8153 1.8165z" fill="#000000" data-darkreader-inline-fill="" style="--darkreader-inline-fill: var(--darkreader-text-545454, #b3aca2); fill: rgb(255, 255, 255);"></path><path id="_407655440" d="m35.1704 13.7287c-.5827 0-1.0553.4737-1.0553 1.0557s.4726 1.0557 1.0553 1.0557c.5828 0 1.0554-.4737 1.0554-1.0557s-.4726-1.0557-1.0554-1.0557zm0 2.8714c-1.0001 0-1.8153-.8143-1.8153-1.8157s.8152-1.8161 1.8153-1.8161c1.0003 0 1.8154.8147 1.8154 1.8161s-.8151 1.8157-1.8154 1.8157z" fill="#000000" data-darkreader-inline-fill="" style="--darkreader-inline-fill: var(--darkreader-text-545454, #b3aca2); fill: rgb(255, 255, 255);"></path></g></g></svg>