<!-- icon666.com - MILLIONS OF FREE VECTOR ICONS --><svg viewBox="0 0 24 24" xmlns="http://www.w3.org/2000/svg"><g id="Layer_4" data-name="Layer 4"><circle cx="13" cy="13" fill="#ffdf47" r="6" style="fill: rgb(33, 139, 19);"></circle></g><g id="Layer_2" data-name="Layer 2"><path d="m20 1a3.0034 3.0034 0 0 1 3 3v16a3.0034 3.0034 0 0 1 -3 3h-16a3.0034 3.0034 0 0 1 -3-3v-16a3.0034 3.0034 0 0 1 3-3zm0-1h-16a4 4 0 0 0 -4 4v16a4 4 0 0 0 4 4h16a4 4 0 0 0 4-4v-16a4 4 0 0 0 -4-4z" fill="#000000" style="fill: rgb(255, 255, 255);"></path></g><g id="Layer_3" data-name="Layer 3"><path d="m12 12.5a3.5 3.5 0 1 1 3.5-3.5 3.5042 3.5042 0 0 1 -3.5 3.5zm0-6a2.5 2.5 0 1 0 2.5 2.5 2.5026 2.5026 0 0 0 -2.5-2.5z" fill="#000000" style="fill: rgb(255, 255, 255);"></path><path d="m16 18.5h-8a2.5 2.5 0 0 1 0-5h8a2.5 2.5 0 0 1 0 5zm-8-4a1.5 1.5 0 0 0 0 3h8a1.5 1.5 0 0 0 0-3z" fill="#000000" style="fill: rgb(255, 255, 255);"></path></g></svg>